<svg xmlns="http://www.w3.org/2000/svg" viewBox="0 0 2178 1678" role="img" aria-label="ResearchZosho">
  <g fill="currentColor" stroke="none" transform="translate(0.000000,1678.000000) scale(0.100000,-0.100000)">
    <path d="M12967 15587 c-5 -12 5 -119 33 -366 l10 -95 -14 -14 -14 -14 -49 77
c-145 230 -205 307 -224 288 -15 -15 47 -164 125 -300 86 -152 76 -158 -78
-50 -226 157 -269 186 -278 181 -27 -17 82 -133 254 -272 77 -61 105 -89 98
-98 -10 -11 -14 -10 -365 112 -55 19 -104 33 -109 31 -27 -9 254 -179 334
-202 39 -12 52 -25 39 -41 -9 -11 -38 -13 -143 -8 -95 5 -128 4 -121 -5 20
-20 170 -50 400 -77 127 -15 235 -32 242 -37 7 -5 26 -33 42 -62 45 -80 85
-120 179 -182 62 -41 110 -63 178 -83 52 -16 105 -35 118 -44 33 -21 189 -213
209 -256 9 -19 23 -52 31 -73 l15 -37 -14 -78 c-8 -42 -20 -99 -29 -125 -10
-33 -13 -75 -10 -131 6 -105 -4 -118 -66 -86 -72 37 -298 125 -455 178 -194
65 -217 72 -295 83 -36 5 -90 14 -120 19 -88 17 -213 30 -234 24 -42 -13 -105
19 -208 103 -57 47 -112 90 -123 95 -11 6 -44 31 -73 55 l-53 45 12 14 c6 8
28 14 49 14 60 0 330 56 406 85 93 35 105 49 34 41 -30 -3 -109 -10 -175 -16
-66 -6 -145 -14 -175 -19 -36 -6 -59 -5 -67 1 -18 15 -7 27 45 49 106 46 344
209 304 209 -11 0 -205 -75 -320 -124 -48 -20 -67 -24 -77 -16 l-14 11 71 107
c77 118 133 221 123 230 -3 3 -45 -33 -94 -82 l-88 -87 -11 14 c-9 11 -4 38
23 123 19 60 35 115 35 121 0 38 -28 -3 -96 -139 -86 -173 -92 -182 -108 -169
-8 7 -9 52 -3 160 5 84 6 158 3 167 -11 29 -23 4 -41 -83 -10 -49 -23 -94 -29
-102 l-10 -13 -18 22 c-10 12 -18 29 -18 37 0 28 -51 183 -61 183 -12 0 -11
-92 5 -230 12 -109 8 -149 -14 -135 -15 9 -140 255 -140 275 0 11 -9 24 -19
30 -22 11 -34 0 -25 -23 7 -19 -61 -97 -84 -97 -9 0 -28 12 -44 27 -33 32 -43
27 -23 -11 26 -49 19 -71 -33 -115 -62 -51 -77 -42 -55 33 8 28 22 67 30 86
18 40 19 46 23 115 4 70 1 95 -9 95 -5 0 -50 -83 -99 -184 -50 -101 -95 -187
-100 -190 -5 -3 -15 0 -21 8 -8 10 -8 40 -1 110 7 65 7 127 0 184 -11 96 -23
121 -40 77 -10 -25 -66 -260 -85 -352 -8 -39 -28 -59 -42 -41 -5 7 -18 45 -28
83 -40 152 -108 295 -141 295 -18 0 -19 15 17 -156 l31 -146 -14 -15 -15 -14
-66 83 c-77 97 -144 165 -154 155 -8 -9 23 -77 99 -217 79 -146 68 -151 -87
-39 -160 116 -180 118 -100 12 24 -33 91 -105 149 -161 81 -77 102 -103 92
-111 -7 -6 -15 -9 -18 -6 -3 3 -40 14 -84 26 -43 11 -141 41 -217 65 -76 25
-148 44 -160 42 l-22 -4 40 -39 c23 -22 89 -65 149 -95 59 -30 110 -58 112
-61 2 -4 -3 -13 -12 -20 l-15 -12 -168 13 c-237 18 -251 4 -58 -59 131 -43
194 -57 297 -67 36 -3 103 -12 150 -20 55 -9 108 -11 150 -6 l65 7 3 27 c4 35
28 55 50 41 64 -39 160 -87 204 -100 84 -25 215 -21 331 10 113 31 153 33 217
13 25 -8 71 -20 103 -26 65 -13 95 -35 178 -131 l51 -59 -12 -15 c-6 -8 -33
-17 -58 -20 -195 -26 -341 -52 -361 -65 l-15 -8 13 -15 c9 -12 9 -17 -1 -23
-34 -22 -79 -4 -57 22 14 18 -4 18 -87 3 -63 -11 -77 -15 -196 -54 -42 -14
-82 -25 -88 -25 -7 0 -26 -6 -43 -14 -18 -8 -86 -31 -152 -51 -120 -38 -221
-84 -420 -196 -155 -86 -252 -151 -411 -276 -157 -124 -180 -137 -244 -148
-25 -4 -58 -15 -75 -24 -23 -12 -58 -16 -160 -16 l-130 1 -52 27 c-65 34 -72
45 -42 69 173 138 419 399 419 445 0 23 -17 14 -96 -49 -42 -35 -118 -96 -168
-135 l-91 -73 -12 13 -13 13 29 54 c30 55 112 244 126 289 12 40 -9 17 -115
-124 -56 -74 -105 -137 -109 -140 -5 -2 -14 1 -20 9 -8 10 -6 47 9 146 22 142
26 266 10 290 l-10 15 -9 -14 c-5 -7 -16 -52 -26 -100 -23 -120 -64 -273 -77
-289 -20 -24 -31 4 -64 165 -17 87 -39 175 -48 195 -16 37 -33 55 -43 45 -7
-8 15 -294 31 -407 14 -92 9 -129 -15 -114 -6 3 -35 58 -65 122 -65 136 -116
226 -152 265 -61 66 -54 18 29 -187 80 -198 73 -207 -64 -85 -132 117 -203
172 -218 167 -14 -5 127 -182 204 -257 41 -40 54 -58 46 -67 -8 -9 -29 -4 -92
26 -209 96 -269 122 -273 117 -8 -8 119 -109 228 -182 l99 -67 -12 -14 c-6 -8
-19 -12 -28 -10 -9 3 -72 12 -141 21 -69 9 -144 19 -167 22 -48 6 -56 -6 -20
-29 24 -16 182 -65 262 -81 28 -5 56 -15 63 -22 l13 -12 -16 -13 c-21 -17
-182 -43 -280 -44 l-80 -1 3 -31 c2 -16 -8 -84 -21 -150 -14 -65 -28 -141 -32
-169 -3 -27 -13 -61 -22 -74 l-15 -23 -13 13 c-7 8 -32 86 -55 174 -46 174
-57 202 -71 188 -9 -9 18 -264 37 -354 3 -15 -1 -30 -9 -37 -11 -9 -19 -6 -39
16 -42 46 -80 101 -138 200 -52 90 -81 124 -95 110 -8 -8 49 -149 95 -235 58
-107 40 -111 -94 -17 -121 84 -202 128 -210 115 -10 -15 64 -100 177 -205
l107 -99 -11 -14 c-15 -17 -36 -13 -204 42 -221 72 -246 78 -259 65 -8 -9 -4
-18 19 -36 36 -30 170 -111 242 -147 58 -30 68 -40 50 -55 -12 -9 -254 16
-346 37 -39 8 -51 6 -51 -10 0 -14 91 -59 169 -83 42 -13 126 -32 186 -42 61
-9 121 -23 134 -31 l23 -15 -13 -13 c-18 -18 -180 -76 -296 -106 -51 -13 -93
-27 -93 -31 0 -14 179 -8 253 8 40 9 124 32 187 51 63 19 148 43 189 54 41 11
83 25 94 30 10 6 38 12 62 14 25 2 60 15 83 30 31 20 61 29 124 36 143 16 212
26 238 36 14 6 56 13 93 17 137 14 417 93 523 148 85 45 157 95 181 127 32 43
96 113 176 193 41 41 70 61 100 68 100 26 124 46 152 131 13 39 26 56 62 80
25 18 101 73 169 124 71 54 186 127 276 175 84 46 164 90 178 100 14 9 48 25
75 35 28 10 79 33 115 50 36 18 128 49 205 69 77 20 172 45 210 56 200 56 524
100 742 100 l64 0 62 -32 c88 -45 134 -50 242 -26 103 22 181 18 309 -13 113
-29 346 -107 376 -127 14 -9 60 -35 103 -57 76 -40 185 -124 258 -196 26 -27
38 -48 42 -80 7 -52 5 -55 -90 -125 -40 -30 -73 -59 -73 -66 0 -6 -23 -34 -50
-62 -51 -51 -130 -172 -130 -199 0 -7 -20 -53 -45 -103 -24 -49 -45 -98 -45
-108 0 -11 -7 -28 -16 -37 -22 -24 -34 -96 -23 -128 6 -16 6 -28 -1 -35 -14
-14 -12 -46 5 -80 8 -15 15 -38 15 -50 0 -12 5 -27 12 -34 15 -15 38 -80 38
-108 0 -12 14 -48 30 -80 57 -108 289 -304 361 -304 10 0 34 -9 53 -21 22 -13
43 -18 56 -14 12 4 58 -7 114 -27 l94 -33 58 13 c33 7 97 20 144 28 176 32
457 -13 677 -107 97 -42 316 -202 428 -314 183 -183 292 -412 341 -715 l15
-101 -14 -62 c-44 -181 -137 -390 -276 -619 -53 -88 -272 -310 -376 -382 -38
-27 -86 -62 -107 -77 -20 -16 -85 -54 -145 -85 -59 -31 -112 -60 -118 -65 -5
-5 -19 -9 -31 -9 -12 0 -44 -9 -70 -21 -27 -11 -57 -18 -68 -15 -14 4 -38 -14
-91 -67 -40 -40 -79 -85 -88 -102 -8 -16 -85 -95 -171 -174 -147 -136 -382
-388 -480 -515 -25 -31 -68 -83 -96 -115 -33 -39 -50 -68 -50 -86 0 -27 -44
-150 -63 -173 -27 -34 -32 12 -28 276 l3 267 30 31 30 32 -25 23 -25 24 -6
201 -6 200 14 19 c9 13 11 29 5 54 -6 27 -4 40 7 51 l14 15 20 -13 c11 -6 22
-12 24 -12 12 0 18 137 7 167 -9 25 -10 38 -2 47 17 21 40 611 28 710 -7 59
-7 84 2 98 9 14 9 23 1 33 -12 14 -5 21 40 41 l25 11 -58 7 -58 8 -24 39 c-14
21 -25 45 -25 54 0 16 -74 74 -126 100 -51 24 -125 23 -159 -3 -15 -12 -40
-22 -54 -22 -15 0 -36 -6 -47 -14 -12 -9 -23 -11 -30 -5 -8 6 -22 1 -42 -16
l-30 -25 -56 6 c-31 4 -61 13 -67 20 -16 20 -142 19 -159 -1 -8 -10 -17 -11
-28 -5 -28 16 -253 26 -537 23 -148 -1 -499 -4 -780 -7 -280 -2 -627 -9 -770
-15 -143 -6 -364 -12 -492 -13 l-232 -3 -18 18 -18 18 25 20 c14 10 84 58 155
106 154 102 328 236 349 268 9 13 26 27 38 30 30 10 59 35 52 47 -11 17 29 50
53 43 17 -4 33 4 64 32 23 20 45 48 50 61 5 13 18 26 29 29 10 3 20 15 22 27
2 13 18 28 45 41 46 22 67 41 258 234 72 72 155 150 186 174 113 85 337 284
409 362 85 93 141 145 156 145 8 0 35 -28 61 -62 26 -35 113 -128 193 -208 81
-80 187 -186 236 -237 238 -245 488 -475 588 -542 13 -9 68 -46 122 -82 55
-36 121 -82 147 -102 27 -20 54 -37 61 -37 7 0 46 -24 87 -53 41 -29 97 -66
124 -82 28 -16 83 -53 123 -83 40 -29 87 -59 105 -67 18 -7 47 -29 66 -49 19
-20 55 -42 81 -51 25 -8 68 -30 95 -48 139 -91 178 -106 206 -81 l20 18 16
-17 c13 -13 14 -19 4 -30 -17 -21 17 -32 38 -13 l16 14 39 -13 c21 -7 50 -25
65 -39 15 -14 38 -26 52 -26 13 0 62 -16 108 -35 109 -46 152 -46 101 0 -14
12 -17 22 -10 30 7 9 27 6 82 -12 40 -14 115 -29 167 -36 l93 -11 20 27 c16
22 23 25 34 16 8 -6 11 -15 8 -20 -8 -14 10 -11 24 4 9 8 58 12 165 14 135 1
185 7 252 33 l20 7 -40 20 c-22 12 -80 33 -130 48 -139 42 -350 128 -458 187
-54 29 -131 70 -170 91 -40 22 -85 49 -102 62 -16 12 -57 37 -90 54 -117 63
-220 124 -344 205 -69 46 -145 93 -168 104 -55 28 -660 462 -788 565 -142 115
-264 223 -309 276 -22 25 -72 80 -111 121 -63 66 -123 133 -355 401 -30 35
-68 84 -83 109 -16 25 -74 91 -129 147 l-101 101 7 26 c9 35 -23 105 -60 135
-52 40 -104 71 -132 77 -15 4 -38 15 -51 26 -13 10 -29 18 -36 18 -7 0 -60 16
-120 36 -85 29 -112 34 -130 26 -13 -6 -56 -8 -99 -6 -89 6 -95 1 -71 -69 22
-65 12 -109 -39 -166 -22 -26 -68 -83 -101 -126 -169 -222 -728 -782 -960
-962 -74 -58 -333 -254 -465 -353 -178 -134 -563 -400 -578 -400 -5 0 -26 -15
-48 -33 -106 -90 -301 -208 -529 -321 l-70 -35 -50 9 c-32 5 -82 3 -140 -6
-130 -20 -203 -18 -250 6 -47 24 -99 25 -194 5 -38 -8 -115 -17 -170 -20
l-101 -5 -12 20 c-7 11 -23 20 -35 20 -12 0 -36 12 -53 26 l-31 27 20 21 c29
30 26 36 -13 36 -18 0 -39 6 -45 14 -18 21 -2 30 141 75 21 7 52 9 70 6 21 -4
51 1 82 13 l49 19 -27 7 c-15 4 -30 4 -35 2 -4 -3 -64 -12 -133 -20 -94 -12
-159 -27 -259 -62 -139 -47 -423 -181 -519 -245 -48 -32 -144 -90 -230 -138
-15 -9 -63 -40 -106 -68 -44 -29 -83 -54 -89 -56 -6 -2 -2 -13 7 -23 l17 -20
-15 -29 c-8 -17 -47 -62 -85 -101 -38 -40 -69 -77 -69 -83 0 -6 -26 -50 -59
-99 -32 -48 -83 -134 -114 -192 -62 -118 -119 -215 -141 -239 -9 -10 -29 -49
-45 -88 -37 -90 -76 -159 -112 -198 -40 -43 -51 -78 -32 -97 12 -12 13 -20 4
-36 -6 -11 -11 -32 -11 -45 0 -27 -32 -61 -45 -50 -5 5 -4 1 3 -8 26 -34 -11
-116 -38 -84 -7 8 -17 15 -22 15 -10 0 -58 -97 -58 -117 0 -22 14 -14 33 18
l17 31 15 -12 c19 -16 19 -22 -5 -76 -12 -25 -18 -54 -15 -64 4 -13 -1 -23
-15 -32 -28 -17 -93 -145 -115 -228 -10 -36 -23 -71 -29 -79 -16 -21 -36 -83
-36 -114 0 -15 -8 -46 -19 -70 -10 -23 -24 -71 -30 -107 -7 -36 -20 -77 -31
-91 l-19 -26 16 -16 c9 -8 12 -20 8 -28 -5 -6 -10 -33 -12 -58 -7 -103 -37
-166 -67 -142 -10 8 -16 8 -24 -2 -24 -28 -42 -88 -42 -137 0 -28 -5 -61 -11
-72 -6 -11 -13 -84 -15 -161 l-3 -140 -26 -27 c-35 -36 -41 -66 -44 -205 -2
-122 -14 -165 -45 -165 -38 0 -41 39 -24 310 1 14 0 45 -2 70 -1 25 0 72 4
105 4 33 9 94 11 135 2 41 11 117 20 168 18 100 15 133 -9 113 -19 -16 -30 2
-32 54 -2 51 21 92 42 75 7 -7 11 -16 8 -21 -7 -13 6 -50 15 -44 5 2 13 37 19
77 22 151 24 170 13 163 -6 -3 -11 -17 -11 -30 0 -13 -4 -27 -10 -30 -5 -3
-10 -19 -10 -34 0 -15 -8 -35 -19 -45 l-18 -17 -13 16 -14 16 17 52 c10 29 22
76 27 105 5 30 13 59 17 65 7 11 11 34 28 152 10 67 34 145 58 186 30 53 40
104 38 183 l-3 58 54 51 c36 36 58 67 70 102 21 62 23 95 4 95 -8 0 -27 16
-42 35 -14 19 -32 35 -39 35 -6 0 -20 9 -31 21 l-18 20 12 19 c7 11 12 25 12
32 0 7 14 33 31 58 37 55 79 146 79 171 0 30 45 134 78 181 46 66 186 282 192
295 15 35 277 312 420 443 l55 51 -35 -20 c-108 -62 -380 -333 -498 -497 -97
-134 -240 -392 -340 -611 -55 -120 -71 -129 -224 -123 -52 2 -53 24 -2 69 26
22 52 41 58 41 25 0 136 60 136 74 0 19 -11 26 -90 53 -50 17 -78 21 -120 16
-65 -7 -191 -42 -275 -77 -33 -14 -65 -26 -71 -26 -6 0 -33 -10 -60 -22 -27
-12 -106 -45 -176 -73 -70 -29 -186 -88 -260 -131 l-133 -79 -160 -160 c-229
-230 -536 -551 -588 -615 -24 -30 -74 -100 -111 -155 -37 -55 -85 -125 -106
-155 -22 -30 -52 -77 -66 -105 -15 -27 -40 -69 -56 -92 -25 -37 -58 -119 -58
-147 0 -4 10 -6 22 -3 34 9 49 -9 36 -43 -5 -16 -16 -34 -24 -41 -8 -6 -14
-19 -14 -29 0 -10 -6 -23 -14 -29 l-15 -12 -17 26 c-19 29 -34 19 -34 -22 0
-25 10 -29 26 -13 22 22 32 -13 23 -88 -13 -116 -53 -216 -74 -182 -9 14 -50
13 -63 -3 -6 -7 -13 -71 -17 -142 -4 -84 -11 -137 -20 -151 -7 -12 -17 -53
-21 -92 -4 -41 -13 -77 -20 -83 -8 -6 -14 -26 -14 -45 0 -23 -7 -38 -22 -49
l-23 -15 2 -112 c1 -61 7 -116 12 -121 8 -8 11 0 11 25 0 19 6 40 13 47 25 20
37 -9 37 -89 0 -42 4 -80 9 -85 14 -16 41 -106 41 -137 0 -22 5 -28 20 -28
l21 0 -6 33 c-8 48 28 205 54 230 l21 21 26 -25 26 -24 -7 45 c-3 25 -14 71
-22 103 -17 63 -13 221 7 241 13 13 13 123 -1 131 -7 5 -8 25 -4 56 5 33 3 49
-4 49 -6 0 -11 -15 -11 -34 0 -18 -7 -39 -16 -46 l-15 -13 -15 14 -14 15 15
79 c8 43 22 89 30 102 l16 24 16 -12 c8 -7 25 -18 37 -24 29 -15 41 -108 30
-239 -9 -98 -7 -140 16 -331 32 -260 32 -265 19 -281 l-12 -15 -29 27 c-15 15
-28 36 -28 46 0 10 -3 18 -7 18 -12 0 -14 -142 -3 -196 6 -27 15 -76 20 -109
16 -96 18 -99 65 -160 25 -33 58 -94 76 -139 17 -45 43 -103 58 -131 16 -27
41 -79 57 -115 15 -36 40 -81 55 -100 15 -19 48 -83 73 -141 49 -115 123 -256
205 -387 41 -66 50 -87 41 -97 -8 -9 -22 -12 -42 -8 l-31 6 8 -14 c9 -14 258
-273 366 -379 30 -30 88 -82 128 -115 40 -33 112 -98 159 -144 l85 -84 126
-59 c190 -91 287 -128 376 -144 44 -8 105 -24 135 -36 30 -11 69 -22 85 -25
17 -3 35 -9 40 -13 6 -4 30 -11 55 -15 25 -4 58 -14 73 -22 20 -10 68 -15 150
-17 67 -1 130 -6 140 -11 10 -4 45 -3 77 2 43 7 63 6 72 -2 7 -7 67 -20 133
-30 66 -10 125 -23 132 -29 13 -13 68 -140 93 -216 10 -30 34 -91 54 -135 27
-62 33 -82 24 -93 l-12 -14 -61 65 c-33 35 -80 88 -105 117 -24 29 -58 61 -75
71 -34 22 -95 26 -95 7 0 -23 26 -87 42 -105 31 -34 128 -183 128 -196 0 -24
148 -210 265 -334 181 -191 333 -321 571 -484 11 -8 72 -53 135 -100 173 -131
293 -198 514 -291 107 -45 146 -56 304 -83 80 -14 163 -33 184 -41 21 -8 100
-21 175 -30 75 -9 172 -25 214 -36 l78 -20 42 10 c24 5 99 10 167 11 69 1 128
4 132 7 4 2 45 11 91 20 45 8 112 24 147 35 35 10 75 19 90 19 37 0 193 46
271 80 36 15 84 36 107 45 59 25 78 47 63 75 -6 11 -24 23 -40 27 -16 3 -35
12 -41 19 -16 20 25 64 60 64 14 0 80 23 146 51 66 28 145 61 175 74 30 13 85
38 123 54 37 17 70 31 73 31 6 0 165 93 204 119 14 10 45 25 70 34 25 9 70 37
100 62 30 25 63 45 73 45 27 0 56 17 119 71 31 27 60 49 65 49 4 0 47 24 95
53 60 37 118 85 185 154 54 55 120 112 147 128 l49 28 20 -12 c14 -9 22 -10
30 -2 6 6 19 11 28 11 21 0 109 49 109 60 0 5 25 25 55 46 74 48 189 176 221
244 14 30 33 63 42 73 l15 17 16 -14 16 -15 38 35 c20 19 49 52 64 72 45 62
76 92 94 92 10 0 37 -19 61 -42 51 -49 139 -118 151 -118 5 0 36 -24 69 -52
33 -29 102 -82 154 -118 51 -36 137 -99 190 -140 149 -115 194 -146 254 -175
30 -15 83 -47 116 -71 34 -24 88 -53 120 -65 32 -12 79 -39 105 -59 25 -20 62
-42 80 -49 19 -7 42 -17 52 -22 86 -46 134 -73 143 -80 20 -16 157 -89 167
-89 5 0 40 -17 76 -38 36 -21 95 -50 131 -66 36 -16 79 -34 95 -42 17 -7 54
-23 84 -34 30 -12 77 -32 105 -45 107 -49 162 -73 191 -79 17 -4 66 -23 110
-41 44 -19 121 -44 170 -55 50 -12 95 -26 100 -30 6 -4 37 -15 70 -25 146 -42
179 -61 155 -90 -10 -12 -27 -14 -79 -9 -47 5 -82 2 -123 -10 l-57 -17 -68 10
c-108 17 -171 29 -206 40 -52 15 -126 31 -147 31 -11 0 -80 24 -154 54 -157
63 -176 68 -196 55 l-15 -9 30 -26 c88 -74 375 -204 450 -204 20 0 49 -6 63
-14 68 -35 105 -47 207 -66 158 -30 426 -41 592 -25 126 13 159 20 248 53 22
8 74 20 116 27 42 7 93 23 115 36 123 75 253 127 334 134 90 8 140 19 200 44
25 11 96 35 159 56 108 35 235 90 311 134 19 12 78 41 130 66 52 25 102 49
110 54 8 5 32 17 52 27 l38 18 17 -17 18 -18 -95 -90 c-52 -50 -117 -105 -145
-124 -27 -18 -63 -47 -80 -64 -16 -18 -50 -41 -75 -52 -25 -11 -59 -34 -76
-50 -17 -17 -46 -38 -65 -47 -19 -9 -34 -24 -34 -32 0 -23 71 -17 98 7 12 11
34 23 50 27 15 4 52 22 82 41 30 19 57 35 61 35 10 0 115 67 164 105 150 115
392 344 460 435 19 25 57 72 86 105 28 33 77 98 108 145 32 47 81 110 110 140
56 58 140 161 220 269 26 36 67 86 90 111 24 25 59 68 78 95 34 48 47 71 148
263 49 94 69 114 94 93 l15 -13 -21 -41 c-11 -23 -38 -65 -59 -94 -21 -28 -58
-92 -83 -141 -24 -49 -64 -121 -90 -161 -25 -39 -46 -74 -46 -77 0 -2 -20 -35
-44 -72 -47 -71 -70 -121 -61 -131 7 -6 35 28 100 124 26 39 57 81 70 95 12
14 39 52 59 85 21 33 52 80 70 105 l32 45 65 22 c35 12 135 43 223 69 203 60
454 156 546 209 14 8 36 17 50 19 36 8 200 108 266 163 21 18 75 61 119 96 44
36 114 95 155 132 41 37 111 94 155 126 44 33 99 75 121 94 l42 35 11 -14 c10
-11 3 -27 -33 -74 -26 -33 -46 -63 -46 -66 0 -37 133 83 242 217 45 56 109
134 143 172 34 39 88 104 120 145 32 41 76 93 97 115 41 41 92 140 123 235 10
30 25 66 34 80 10 14 24 43 33 65 9 22 28 67 42 101 14 33 30 90 36 125 5 35
17 96 25 134 28 127 45 310 40 436 l-4 121 -26 20 c-28 22 -32 40 -11 57 10 9
16 8 26 -4 17 -20 30 -10 30 26 0 35 -15 37 -40 7 l-18 -22 -16 14 c-13 10
-16 23 -11 49 4 26 -2 56 -21 106 -36 97 -41 127 -48 310 -18 460 -67 713
-182 950 -69 144 -92 178 -306 456 -43 56 -78 105 -78 109 0 5 -30 32 -67 61
-37 29 -86 71 -108 94 -22 22 -56 52 -75 66 -116 84 -188 139 -199 153 -7 9
-22 16 -32 16 -10 0 -52 23 -94 51 -70 47 -172 99 -221 113 -16 5 -26 0 -38
-19 l-17 -26 -37 7 -37 7 14 -16 c7 -10 18 -17 24 -17 6 0 49 -36 96 -80 108
-101 126 -117 153 -131 29 -15 158 -120 230 -188 l59 -54 -15 -15 -15 -15 -42
37 c-24 20 -79 55 -124 77 -44 22 -84 44 -90 48 -22 15 -123 51 -170 60 -54
10 -222 93 -295 146 -48 35 -67 41 -175 57 -75 11 -95 21 -95 48 0 28 -80 54
-95 30 -3 -5 -62 -8 -143 -6 -135 3 -172 -1 -262 -30 -58 -18 -106 -19 -205
-4 l-80 13 -170 -17 c-93 -9 -210 -19 -258 -21 -49 -3 -97 -10 -107 -15 -10
-5 -44 -7 -77 -4 -44 5 -68 2 -98 -11 -22 -10 -71 -18 -110 -20 -48 -2 -84 -9
-112 -24 -31 -15 -60 -21 -111 -21 -52 0 -75 -5 -93 -19 -33 -25 -50 -30 -75
-20 -19 7 -95 -20 -144 -52 -8 -5 -26 -14 -40 -20 -14 -6 -61 -28 -105 -49
-44 -21 -90 -41 -102 -44 -11 -4 -27 -13 -33 -21 -7 -8 -22 -15 -34 -16 l-21
0 20 -9 c46 -20 87 -10 192 45 65 34 118 55 138 55 18 0 43 8 56 19 26 20 123
51 160 51 12 0 49 10 81 22 l59 21 33 -10 c20 -6 41 -6 57 -1 13 5 43 7 65 3
28 -4 56 0 85 11 49 18 175 20 197 2 18 -16 -2 -35 -46 -43 -20 -4 -57 -15
-81 -26 -24 -11 -63 -22 -85 -26 -23 -3 -59 -15 -81 -26 -38 -20 -70 -27 -198
-46 -31 -5 -63 -13 -70 -19 -6 -5 -34 -17 -62 -25 -54 -17 -266 -111 -300
-133 -12 -8 -48 -23 -81 -34 -32 -11 -106 -45 -164 -74 -58 -29 -118 -53 -132
-53 -15 0 -39 -10 -55 -21 -15 -11 -50 -31 -78 -44 -154 -75 -323 -169 -440
-244 -73 -46 -136 -84 -140 -84 -4 0 -22 -12 -40 -28 -18 -15 -79 -56 -136
-92 -57 -36 -130 -83 -162 -105 -33 -22 -74 -49 -92 -60 -18 -11 -51 -39 -73
-62 -23 -23 -58 -52 -79 -63 -81 -45 -116 -69 -156 -107 -23 -22 -53 -46 -67
-55 -82 -51 -350 -288 -350 -310 0 -3 -31 -29 -69 -57 -38 -27 -81 -66 -96
-86 -15 -19 -38 -38 -51 -41 -13 -3 -53 -37 -89 -76 -37 -38 -105 -104 -153
-146 -48 -42 -137 -122 -199 -177 -61 -55 -151 -134 -199 -175 -48 -41 -149
-134 -224 -207 -103 -99 -140 -129 -148 -121 -15 15 21 78 97 172 31 38 65 83
76 101 29 48 471 494 609 616 198 173 437 388 511 459 39 37 129 111 200 164
72 52 153 114 182 137 55 45 98 75 233 162 96 62 238 164 320 230 30 24 84 61
118 83 35 21 85 54 110 72 26 18 61 39 77 46 17 8 75 44 129 80 55 36 104 66
108 66 4 0 8 5 8 11 0 18 -62 -1 -100 -30 -19 -14 -49 -35 -66 -46 -18 -11
-68 -44 -110 -73 -50 -34 -85 -52 -97 -48 -10 2 -36 -7 -60 -24 -23 -15 -71
-44 -107 -64 -196 -111 -282 -174 -479 -348 l-76 -68 -33 0 c-49 0 -66 -13
-182 -130 -59 -60 -125 -117 -150 -130 -25 -12 -68 -43 -96 -69 -84 -77 -165
-146 -179 -151 -6 -3 -36 -33 -64 -68 -54 -65 -68 -74 -137 -92 -57 -14 -80
-35 -509 -444 -85 -81 -113 -102 -123 -94 -10 9 9 34 91 117 134 137 276 290
294 319 12 17 13 25 3 37 l-12 15 103 109 c57 60 181 180 274 267 94 86 238
223 320 303 83 80 194 186 248 234 53 49 97 94 97 102 0 7 16 25 35 39 19 15
35 31 35 37 0 21 -35 5 -141 -66 -126 -84 -143 -85 -133 -11 6 44 10 58 56
181 16 44 37 130 48 190 21 126 47 192 128 314 88 133 136 188 251 289 112 99
312 250 385 292 24 14 65 39 92 57 27 17 77 46 112 65 87 46 153 101 224 185
33 40 64 73 69 73 17 0 126 104 157 150 35 53 60 67 91 51 26 -14 67 -14 94 0
37 20 98 92 119 142 28 64 213 226 308 270 114 51 124 55 175 62 28 4 61 12
74 17 21 7 122 -1 209 -18 13 -3 66 -45 118 -94 51 -49 104 -92 116 -94 13 -3
37 -8 53 -11 79 -17 169 -20 194 -7 14 8 56 27 92 42 37 15 92 49 123 74 144
117 286 150 460 106 88 -22 194 -26 263 -8 l46 11 26 -31 26 -31 160 10 c173
11 325 34 475 74 155 42 141 48 -97 42 l-213 -5 -22 17 -22 18 25 15 c13 8 61
36 106 63 74 44 219 162 210 171 -3 3 -115 -41 -284 -114 l-72 -31 -11 14 c-8
10 7 39 66 127 42 62 94 135 116 162 35 45 48 76 31 76 -5 0 -69 -56 -143
-125 l-134 -125 -13 13 -13 12 20 60 c10 33 32 96 48 140 81 221 48 188 -103
-101 -26 -49 -53 -95 -59 -102 l-13 -13 -10 13 c-7 9 -8 47 -2 113 11 141 11
265 -1 265 -6 0 -27 -12 -48 -27 -21 -16 -66 -41 -100 -57 l-62 -29 -20 18
c-31 28 -24 62 30 154 27 46 47 88 44 93 -7 11 -63 -32 -175 -133 -106 -96
-120 -92 -78 22 29 81 63 254 53 271 -9 15 -42 -21 -55 -61 -17 -51 -67 -150
-96 -189 -35 -47 -52 -30 -42 40 11 76 10 280 -1 298 -14 22 -33 -33 -81 -227
-23 -92 -46 -174 -51 -181 l-11 -13 -17 16 c-9 8 -23 41 -30 73 -19 89 -60
212 -87 266 l-25 50 -14 -19 c-8 -10 -14 -27 -14 -37 0 -36 32 -215 56 -317
19 -79 22 -106 13 -117 -6 -8 -15 -12 -19 -9 -5 3 -53 65 -108 138 -92 123
-160 197 -182 197 -5 0 -12 -4 -15 -10 -6 -10 146 -272 190 -326 20 -25 23
-33 13 -42 -10 -8 -59 16 -193 94 -99 57 -186 104 -192 104 -51 1 76 -126 227
-225 l102 -67 -15 -15 -15 -15 -123 27 c-68 15 -146 33 -173 41 -61 17 -67 17
-60 0 18 -47 368 -149 599 -173 88 -10 93 -31 30 -143 -47 -85 -92 -130 -190
-194 -97 -63 -120 -73 -183 -82 -63 -8 -99 10 -177 90 -78 79 -138 120 -239
164 l-81 35 -125 1 -125 0 -50 -21 c-27 -12 -97 -40 -155 -63 l-105 -41 -22
28 c-27 33 -28 41 -9 62 7 9 21 48 31 86 9 39 20 75 25 80 4 6 10 63 14 129
l6 118 -19 32 c-10 17 -24 65 -30 106 -39 251 -100 448 -172 559 -22 34 -49
83 -60 109 -11 25 -35 64 -53 87 -84 105 -166 227 -160 237 5 8 1 9 -11 5 -13
-6 -30 6 -66 41 -26 27 -74 61 -106 76 -32 16 -74 43 -93 60 -19 18 -47 40
-61 49 -15 9 -29 28 -32 44 -3 16 -24 48 -46 71 -51 53 -57 83 -42 246 l12
131 40 72 c22 40 61 91 88 115 66 60 411 241 427 225 3 -3 18 -1 33 4 20 7 35
6 57 -6 16 -8 52 -15 80 -15 28 0 79 -9 112 -20 75 -23 301 -39 335 -22 12 6
38 13 57 16 33 6 115 43 190 86 19 11 50 20 69 20 18 0 49 10 69 22 l34 21 47
-11 c72 -19 388 -16 512 3 213 34 313 60 287 76 -7 5 -130 6 -273 2 l-260 -6
-13 15 -12 15 12 11 c7 5 65 31 128 57 135 55 191 83 265 130 55 36 75 55 55
55 -12 0 -194 -53 -337 -98 -127 -40 -135 -28 -42 64 91 88 239 253 239 265 0
26 -50 -2 -187 -105 -168 -127 -192 -133 -144 -37 74 147 134 326 103 307 -7
-4 -42 -51 -79 -104 -36 -53 -91 -132 -121 -175 l-55 -79 -12 14 c-10 10 -10
45 1 168 16 189 17 243 5 235 -13 -8 -58 -149 -71 -220 -18 -106 -40 -198 -52
-212 -14 -18 -38 1 -38 31 0 25 -54 269 -75 344 -9 28 -20 52 -25 52 -13 0
-13 -124 0 -269 l10 -115 -13 -13 -13 -14 -16 18 c-9 10 -30 43 -47 74 l-31
55 25 34 c30 41 20 60 -21 41 l-27 -12 -17 16 c-10 9 -32 47 -49 85 -18 39
-35 70 -38 70 -2 0 -42 -27 -87 -60 -46 -33 -88 -60 -94 -60 -6 0 -34 -20 -62
-45 -55 -49 -62 -52 -79 -32 -8 10 -2 27 25 71 45 71 134 273 134 304 0 12 -5
22 -10 22 -6 0 -54 -59 -107 -130 l-97 -130 -14 13 -14 14 18 125 c17 128 14
192 -11 201 -21 9 -30 -9 -70 -138 -21 -66 -42 -126 -47 -133 -21 -25 -36 9
-48 111 -17 142 -51 216 -85 187 -12 -10 -15 -44 -15 -165 0 -121 -3 -155 -14
-165 l-15 -11 -24 38 c-13 21 -41 68 -61 106 -34 59 -56 83 -56 59 0 -23 51
-234 69 -284 l20 -57 -14 -11 c-15 -12 -18 -8 -115 138 -69 104 -154 192 -171
175 -17 -17 5 -74 74 -188 33 -55 69 -113 79 -128 16 -22 17 -31 8 -42 l-11
-14 -82 44 c-45 23 -102 55 -127 69 -48 27 -80 33 -80 14 0 -14 142 -151 198
-190 l43 -30 -12 -14 c-6 -7 -15 -12 -19 -9 -4 2 -52 11 -106 19 -55 9 -121
22 -149 31 -27 8 -58 15 -69 15 l-18 0 12 -15 c20 -24 131 -82 206 -107 38
-13 75 -27 82 -32 l13 -8 -13 -15 -13 -16 -162 6 c-170 7 -197 1 -156 -33 47
-38 208 -69 417 -80 l198 -11 17 15 c21 19 46 20 91 5 l33 -12 34 18 34 19 15
-16 16 -16 -11 -53 c-15 -71 -51 -109 -102 -109 -57 0 -221 -36 -296 -65 -177
-67 -273 -131 -365 -241 -75 -88 -148 -231 -148 -287 0 -23 -5 -61 -10 -84 -6
-27 -7 -67 0 -110 6 -46 6 -71 -2 -80 -15 -18 -73 -16 -111 3 -54 29 -171 66
-201 64 -16 0 -50 6 -75 14 -66 20 -166 26 -316 17 -80 -5 -138 -4 -152 2 -15
7 -31 6 -50 -2 -43 -17 -210 -18 -268 -2 -73 21 -150 67 -185 111 -54 68 -64
104 -64 225 l0 110 27 40 c54 81 94 128 157 184 80 70 226 146 267 138 34 -6
68 10 111 56 40 41 55 90 55 172 0 96 -9 133 -42 171 -17 19 -31 44 -31 56 0
11 -26 48 -59 84 -34 36 -73 92 -92 131 -18 37 -40 76 -48 86 -11 13 -15 42
-15 105 0 103 9 165 35 246 20 63 18 118 -7 168 -21 41 -17 61 19 96 36 35 58
40 77 17 7 -8 28 -15 47 -15 18 0 44 -6 56 -14 85 -53 550 -61 647 -11 l32 17
-13 13 c-15 14 -149 38 -304 56 -55 6 -106 16 -113 23 l-13 13 13 10 c7 6 37
18 67 28 70 23 293 137 299 153 5 17 -42 15 -175 -6 -78 -13 -116 -15 -123 -8
-7 7 17 38 79 101 115 115 142 165 91 165 -24 0 -187 -84 -217 -112 -18 -17
-25 -19 -37 -9 l-14 12 43 92 c59 125 89 217 76 230 -14 14 -66 -36 -134 -128
-75 -103 -88 -117 -103 -104 -9 8 -6 28 17 94 51 152 66 266 29 229 -5 -5 -39
-66 -76 -134 -36 -69 -79 -142 -95 -163 -33 -41 -68 -113 -69 -138 0 -9 -6
-22 -14 -28 -17 -15 -31 2 -41 49 -14 67 -97 306 -131 377 -39 83 -39 81 -17
105 9 10 14 20 11 23 -3 3 -54 -13 -114 -36 -241 -90 -327 -114 -343 -95 -8
10 6 27 67 78 83 69 212 208 212 227 0 17 -44 -8 -198 -111 -106 -71 -136 -87
-147 -78 l-14 12 40 71 c101 181 156 327 118 315 -8 -2 -61 -66 -118 -142
l-104 -137 -14 14 -14 14 15 96 c18 107 21 273 7 282 -6 3 -14 -2 -19 -12 -19
-35 -72 -210 -98 -323 -15 -63 -32 -121 -39 -128 l-12 -13 -11 13 c-6 7 -22
80 -37 162 -29 164 -54 254 -85 304 -20 33 -44 42 -53 19z m880 -639 c5 -7 20
-62 32 -123 13 -60 31 -140 41 -177 l18 -67 -13 -11 c-11 -9 -28 10 -84 92
-92 133 -119 168 -133 168 -36 0 63 -224 149 -339 31 -41 80 -101 110 -133 38
-41 53 -66 53 -86 0 -35 -55 -112 -80 -112 -10 0 -36 25 -61 58 -100 133 -174
189 -334 252 -211 83 -272 123 -316 204 l-24 45 21 28 c13 17 34 30 55 34 19
3 78 14 132 23 98 17 297 89 369 134 39 24 52 26 65 10z m-2064 -365 c28 -65
32 -85 22 -93 -10 -8 -28 6 -74 56 -33 37 -61 70 -61 75 0 4 12 22 26 39 l27
31 13 -13 c7 -7 28 -50 47 -95z m-61 -125 c45 -57 112 -133 147 -171 l64 -67
-18 -20 c-12 -14 -25 -18 -41 -14 -15 4 -34 0 -49 -10 -13 -9 -41 -16 -62 -16
-21 0 -79 -15 -129 -34 l-91 -34 -81 8 c-78 8 -162 36 -176 59 -4 6 16 34 46
63 50 50 198 221 261 302 15 20 32 36 37 36 5 0 46 -46 92 -102z m-93 -804
c-6 -7 -14 -13 -17 -12 -4 1 -15 -2 -25 -7 -10 -4 -21 -5 -24 -1 -3 3 -11 1
-18 -4 -19 -16 -175 -58 -181 -48 -3 4 -17 -1 -31 -12 -38 -30 -122 -53 -140
-38 l-14 11 13 12 c19 18 138 54 144 44 3 -5 18 0 33 12 26 19 171 63 171 52
0 -3 7 0 15 7 8 7 21 10 30 7 8 -4 17 -2 21 4 4 6 11 6 20 -2 11 -9 11 -15 3
-25z m4900 -342 c6 -23 9 -47 5 -53 -8 -13 -90 -49 -112 -49 -18 0 -52 28 -52
44 0 6 25 39 57 74 l56 64 17 -19 c9 -10 22 -37 29 -61z m-5725 17 c-3 -5 -27
-20 -54 -34 l-48 -24 -12 14 c-12 15 -1 25 65 58 30 15 62 6 49 -14z m5783
-189 c7 -14 30 -62 51 -108 l39 -82 -14 -12 c-11 -9 -31 7 -98 76 -47 48 -85
93 -85 101 0 18 59 56 80 53 8 -2 20 -14 27 -28z m-109 -132 c38 -46 111 -127
161 -182 53 -56 91 -105 89 -115 -2 -9 -36 -33 -76 -54 l-73 -38 -107 -6 c-77
-4 -131 -1 -193 11 -47 9 -99 16 -116 16 -47 0 -59 21 -45 81 18 76 15 101
-18 164 -35 66 -30 79 28 89 20 3 89 30 152 60 63 30 118 54 122 55 4 1 38
-36 76 -81z m-7031 -90 l23 -22 30 22 c16 12 34 22 41 22 6 0 49 -21 96 -46
101 -55 175 -80 263 -89 78 -9 94 -18 79 -49 -28 -53 -157 -210 -219 -265 -85
-76 -228 -143 -460 -217 -25 -8 -73 -23 -107 -34 -34 -11 -78 -20 -99 -20 -20
0 -73 -7 -117 -16 l-79 -16 -15 15 -16 15 49 64 c27 34 80 102 119 150 68 83
160 238 153 258 -2 5 -70 -56 -153 -135 -118 -114 -153 -142 -162 -132 -10 10
-7 25 12 73 50 123 99 353 63 293 -66 -108 -156 -250 -167 -263 -11 -12 -17
-14 -28 -5 l-13 12 6 161 c4 90 11 167 17 175 9 10 29 12 87 7 90 -8 282 7
365 28 163 41 201 43 232 14z m8623 -2594 c0 -23 -61 -56 -77 -42 l-14 11 32
33 c25 26 36 31 46 23 7 -6 13 -18 13 -25z m218 -17 c14 -16 -23 -246 -42
-265 l-13 -13 -10 13 c-5 7 -19 40 -31 73 -40 116 -39 120 33 174 46 34 49 35
63 18z m-10883 -47 c23 -26 10 -43 -47 -59 -24 -7 -61 -21 -83 -31 -141 -66
-216 -104 -257 -130 -26 -16 -66 -35 -89 -43 -23 -8 -62 -32 -88 -54 -25 -22
-60 -47 -76 -56 -29 -15 -339 -327 -401 -404 -111 -136 -235 -315 -279 -403
-44 -88 -65 -113 -81 -99 l-14 11 82 157 c158 303 289 488 491 692 276 279
539 422 803 438 11 0 29 -8 39 -19z m10693 -72 c5 -7 24 -67 42 -133 17 -66
46 -150 65 -187 l33 -68 -15 -11 c-7 -7 -46 -14 -86 -17 l-72 -4 -95 32 -95
32 -81 -5 c-48 -4 -85 -2 -91 4 -7 7 -2 32 13 75 13 36 24 82 24 102 0 20 6
48 13 61 l12 23 51 2 c40 1 73 12 150 52 111 57 117 59 132 42z m-4892 -110
c25 -25 4 -44 -58 -52 -88 -12 -599 -7 -615 5 -28 24 5 39 86 40 42 0 153 7
246 14 222 17 319 15 341 -7z m-3715 -174 c11 -13 14 -63 16 -203 1 -102 5
-220 8 -261 3 -41 8 -194 11 -340 3 -146 8 -272 11 -280 3 -8 7 -87 9 -175 5
-254 14 -447 21 -458 3 -5 7 -64 9 -131 3 -143 10 -179 35 -202 24 -22 24 -26
-6 -74 -28 -45 -31 -73 -11 -112 8 -15 11 -30 7 -32 -11 -7 -12 -172 -1 -199
l9 -22 0 21 c1 29 25 49 38 32 6 -7 16 -103 22 -213 14 -236 28 -365 41 -401
15 -39 41 -26 63 31 11 28 25 64 33 82 7 18 22 92 34 165 11 73 25 156 31 183
11 51 33 405 30 483 -2 50 14 79 35 61 8 -6 13 -35 14 -77 0 -37 3 -80 5 -97
2 -16 4 -34 4 -38 1 -5 5 -6 10 -3 14 9 23 101 26 244 1 83 6 137 14 145 6 6
11 23 11 38 0 15 7 32 15 39 22 18 599 25 613 7 5 -6 13 -68 16 -137 10 -183
23 -262 62 -383 l34 -107 -30 -54 c-33 -57 -55 -76 -133 -113 -47 -22 -92 -55
-172 -125 -23 -21 -47 -38 -53 -38 -6 0 -34 -23 -62 -52 l-51 -52 -30 18 -30
18 -32 -25 c-18 -14 -96 -89 -172 -167 -270 -275 -389 -388 -401 -379 -7 6 -9
24 -4 51 5 27 3 66 -6 107 -9 47 -10 69 -2 78 8 10 14 11 25 1 16 -13 -9 48
-38 92 -9 14 -19 35 -23 46 -7 23 -82 103 -181 195 -33 30 -82 85 -110 122
-65 88 -338 343 -440 411 -44 29 -136 103 -205 163 -69 60 -147 124 -174 143
-27 18 -86 65 -130 103 -45 38 -106 88 -136 110 -30 22 -78 60 -107 85 -29 24
-74 56 -101 70 -60 33 -120 75 -176 123 -83 72 -121 94 -426 243 -63 31 -122
56 -131 56 -9 0 -36 9 -60 19 -24 11 -79 25 -121 31 -48 8 -83 19 -93 30 l-16
18 28 21 c15 12 60 42 98 67 39 25 77 52 85 59 19 18 229 122 283 141 121 44
233 64 352 65 66 0 134 -2 150 -5 17 -2 53 -7 80 -11 28 -4 61 -13 75 -20 14
-7 41 -19 60 -26 19 -6 49 -18 66 -26 16 -7 106 -40 200 -72 237 -82 254 -89
285 -116 16 -13 54 -36 86 -51 32 -16 87 -48 123 -71 36 -24 69 -43 74 -43 5
0 41 -23 80 -50 201 -142 259 -180 264 -176 8 9 -22 47 -104 132 -145 148
-301 280 -397 335 -130 73 -161 98 -147 114 l11 13 105 -46 104 -46 16 22 15
22 37 -16 c93 -41 207 -84 215 -81 4 1 -8 24 -29 51 -26 34 -53 55 -92 73 -30
13 -74 37 -97 53 -23 16 -54 32 -69 36 -14 3 -29 10 -32 15 -3 5 -18 9 -33 9
-29 0 -57 21 -44 33 10 11 -28 47 -49 47 -10 0 -40 11 -66 23 -121 61 -490
154 -587 149 -100 -5 -231 0 -242 10 -17 14 1 38 28 38 10 0 42 9 71 21 l53
21 177 -4 c132 -2 180 0 189 10 7 6 9 12 4 13 -53 4 -156 37 -176 55 -29 27
-7 41 74 48 l72 7 45 -22 45 -22 37 10 c26 7 45 6 65 -2 15 -7 46 -15 68 -19
41 -8 91 -21 277 -76 88 -26 254 -54 266 -45 9 7 -67 101 -100 124 -22 14 -51
36 -66 48 l-27 22 15 14 c8 8 44 25 80 37 36 12 95 33 132 45 38 13 80 32 95
43 16 10 42 24 59 29 17 6 55 25 85 42 63 36 62 36 80 15z m3719 -29 c17 -21
7 -569 -11 -591 l-12 -15 -271 6 c-194 5 -275 10 -284 19 -10 9 -14 78 -17
274 l-5 262 23 14 c15 10 83 17 226 25 112 6 206 13 209 16 3 3 33 5 67 5 43
0 66 -5 75 -15z m-867 -43 l16 -17 7 -255 7 -255 -16 -13 c-23 -20 -628 -22
-651 -3 l-16 13 0 149 c0 87 -7 190 -16 249 -12 74 -13 104 -5 114 8 10 46 13
140 14 153 1 414 12 420 18 2 2 25 4 51 4 32 0 52 -6 63 -18z m-911 -30 c22
-17 27 -65 34 -300 4 -152 3 -206 -6 -217 l-12 -15 -278 0 c-218 0 -280 3
-289 13 -7 10 -8 67 -2 195 5 109 4 203 -1 234 l-9 51 16 16 16 16 175 6 c96
4 177 9 180 11 11 11 161 3 176 -10z m-864 -35 c17 -20 30 -136 36 -319 l6
-168 -23 -14 c-15 -10 -55 -14 -132 -15 -60 0 -170 -6 -243 -12 l-133 -12 -14
14 c-10 10 -17 72 -25 232 -6 119 -13 224 -16 232 -4 9 0 22 7 31 l13 16 58
-6 c32 -4 86 -2 120 4 54 10 199 24 304 29 17 0 36 -5 42 -12z m-2769 -101
c19 -22 -9 -35 -100 -48 -46 -6 -93 -12 -105 -13 -11 -1 -25 -5 -32 -9 -7 -4
-17 -4 -22 -1 -6 4 -17 2 -24 -4 -7 -6 -26 -12 -42 -14 -17 -2 -35 -6 -41 -10
-6 -4 -16 -1 -22 7 -9 10 -7 17 5 27 10 8 18 13 18 11 1 -2 14 2 30 8 16 6 36
8 44 5 8 -3 20 -1 27 5 7 6 17 10 21 9 5 -1 16 1 24 4 78 32 201 45 219 23z
m5400 -550 c8 -9 14 -63 16 -138 2 -68 7 -222 10 -343 l7 -221 -14 -12 c-8 -6
-48 -12 -89 -13 -114 -2 -493 23 -506 33 -17 14 -17 632 0 646 7 6 98 15 202
21 105 7 219 18 255 25 88 18 105 18 119 2z m-828 -63 c19 -23 27 -606 9 -628
l-12 -15 -333 0 -333 0 -12 15 c-10 12 -12 80 -8 306 l6 291 16 16 17 17 197
6 c108 3 252 6 318 7 l122 2 13 -17z m-902 -26 c7 -10 12 -108 13 -305 l3
-292 -15 -14 c-20 -18 -611 -31 -629 -13 -12 12 -13 158 -3 408 l7 157 18 20
c21 23 65 30 283 41 236 13 310 13 323 -2z m-861 -59 c15 -19 32 -560 18 -575
-10 -10 -109 -16 -466 -28 -68 -3 -109 0 -118 7 l-14 12 7 175 c4 97 7 218 6
270 -1 127 -2 127 141 130 62 1 151 6 198 10 137 13 216 12 228 -1z m-5900
-340 c9 -9 8 -16 -5 -30 -9 -10 -22 -18 -29 -18 -12 0 -63 -22 -125 -56 l-27
-14 -13 16 -13 16 39 34 c32 27 95 52 156 63 3 1 10 -4 17 -11z m9690 -27 c-7
-9 -25 -31 -42 -48 -32 -35 -29 -58 4 -28 l20 18 15 -13 16 -13 -21 -22 c-11
-12 -20 -26 -20 -31 0 -6 -5 -15 -12 -22 -9 -9 -16 -8 -30 5 -10 9 -18 22 -18
30 0 17 -2 16 -45 -4 l-35 -17 -16 16 -16 15 49 39 c26 22 52 45 56 52 17 26
82 60 95 50 10 -8 10 -14 0 -27z m-7701 -33 c17 -22 21 -57 8 -68 -14 -12 -65
-10 -82 3 -9 7 -6 17 13 43 28 36 45 42 61 22z m-1097 -425 c-27 -106 -42
-133 -69 -126 -39 10 -41 26 -11 87 17 32 30 70 30 84 0 14 10 36 22 49 l22
23 14 -14 15 -14 -23 -89z m7635 87 c8 -6 16 -44 20 -93 11 -135 29 -183 59
-158 10 8 16 7 26 -3 6 -9 9 -19 6 -25 -3 -5 -2 -20 3 -33 12 -31 19 -93 26
-208 3 -53 10 -111 15 -130 21 -75 13 -123 -39 -222 -27 -51 -56 -106 -64
-123 -23 -44 -40 -135 -35 -186 3 -24 1 -55 -4 -68 -5 -13 -11 -49 -14 -80 -3
-31 -9 -87 -15 -126 l-10 -70 -30 -31 -30 -31 6 -84 c3 -46 8 -102 10 -125 l4
-41 -82 -86 c-45 -47 -96 -93 -113 -104 -40 -24 -197 -167 -404 -370 -91 -88
-179 -169 -195 -180 -17 -10 -79 -70 -140 -133 -60 -63 -187 -194 -282 -290
-95 -96 -185 -193 -201 -215 -41 -58 -132 -155 -145 -155 -17 0 -255 240 -312
315 -29 39 -88 106 -130 150 -42 44 -85 92 -94 106 -53 84 -196 231 -251 259
-19 10 -44 27 -54 39 l-19 21 124 128 c69 70 145 150 169 177 25 28 73 78 107
112 34 35 74 80 89 100 16 21 55 65 89 98 33 33 75 80 91 105 17 25 43 63 57
84 l27 39 -13 16 c-9 11 -13 34 -10 71 1 30 3 64 4 74 0 11 -17 36 -37 57
l-37 38 13 16 c7 8 19 15 26 15 8 0 14 5 14 10 0 15 -10 12 -46 -15 -18 -14
-36 -25 -40 -25 -4 0 -20 -12 -35 -26 l-27 -26 -20 11 c-29 16 -37 14 -72 -15
l-31 -26 -20 18 -20 18 -14 -15 c-8 -8 -16 -38 -18 -66 l-3 -51 -48 -53 c-27
-30 -56 -58 -65 -63 -42 -22 -98 -63 -116 -84 l-21 -24 -53 8 c-65 11 -84 33
-56 64 12 13 22 17 28 11 6 -6 16 -3 26 9 18 21 47 27 73 16 12 -6 27 2 52 28
20 19 36 42 36 49 0 20 37 50 54 44 8 -3 22 0 31 7 l16 12 -13 43 c-7 24 -26
54 -42 68 l-29 24 -29 -35 c-16 -20 -35 -36 -43 -36 -7 0 -31 -18 -53 -40 -28
-28 -45 -38 -57 -34 l-17 7 12 -19 12 -19 -28 -50 c-16 -29 -83 -105 -159
-180 -125 -123 -178 -185 -159 -185 5 0 16 4 24 10 9 5 19 5 27 -2 18 -14 3
-39 -52 -84 -35 -28 -48 -34 -59 -25 -20 17 -38 6 -88 -52 -86 -100 -786 -758
-1044 -982 -225 -196 -385 -324 -504 -403 -74 -50 -153 -109 -175 -131 -21
-23 -46 -41 -55 -41 -9 0 -65 -32 -125 -72 -61 -39 -150 -95 -200 -123 -49
-29 -119 -70 -155 -91 -36 -22 -81 -47 -100 -56 -19 -8 -132 -63 -250 -122
-118 -58 -225 -106 -236 -106 -12 0 -38 -13 -58 -29 -20 -16 -69 -39 -108 -51
-40 -12 -83 -26 -96 -31 -13 -5 -34 -9 -47 -9 -25 0 -120 -44 -130 -60 -3 -6
-15 -10 -26 -10 -10 0 -36 -16 -57 -35 l-37 -34 29 -1 c33 0 81 14 144 41 23
11 59 23 80 28 81 21 161 58 209 98 l50 42 36 -6 c40 -6 189 40 267 84 25 13
70 33 100 44 30 11 73 32 95 47 22 16 111 65 198 110 87 45 197 108 245 140
48 32 98 66 112 75 157 106 207 142 305 225 187 158 246 205 289 234 23 15 88
66 146 112 58 47 130 103 160 125 53 38 315 292 452 438 69 74 198 183 215
183 6 0 46 45 88 100 43 55 86 100 95 100 24 0 150 100 234 184 39 39 90 80
114 90 l43 19 21 -20 21 -21 -54 -64 c-77 -90 -219 -227 -254 -245 -16 -8 -51
-36 -77 -61 -37 -36 -50 -43 -61 -34 -11 9 -21 3 -51 -27 l-37 -38 6 -25 7
-26 -63 -72 c-34 -40 -80 -84 -102 -99 -21 -14 -60 -44 -86 -67 -25 -23 -56
-47 -69 -53 -14 -8 -22 -20 -20 -31 4 -25 -64 -105 -105 -126 -18 -9 -54 -38
-82 -65 -27 -28 -90 -84 -140 -126 -49 -42 -124 -108 -165 -148 -41 -40 -102
-92 -135 -117 -33 -25 -71 -58 -85 -73 -14 -15 -59 -55 -100 -88 -41 -33 -79
-64 -85 -69 -6 -6 4 -21 28 -42 l39 -32 -28 -33 -27 -32 22 -15 c12 -9 19 -19
16 -24 -12 -19 -283 -226 -384 -293 -58 -39 -123 -85 -144 -102 -20 -18 -67
-47 -104 -66 -37 -19 -79 -43 -93 -54 -14 -12 -38 -29 -55 -40 -16 -10 -52
-36 -78 -59 l-48 -40 33 -11 33 -12 65 34 c36 19 76 46 91 59 14 13 35 24 48
24 13 0 56 21 96 48 96 62 181 114 228 137 45 23 406 291 457 340 19 19 78 67
131 107 112 85 204 163 400 341 77 70 147 127 154 127 8 0 22 -12 32 -26 89
-128 313 -353 796 -797 59 -54 107 -105 107 -112 0 -7 -11 -22 -25 -33 l-25
-20 -34 12 c-18 6 -40 17 -49 24 l-15 13 -30 -26 c-17 -14 -93 -87 -169 -162
-76 -75 -157 -154 -181 -177 -24 -23 -58 -63 -76 -91 -34 -52 -89 -111 -166
-180 -25 -23 -58 -57 -73 -78 -15 -20 -51 -55 -80 -77 -29 -22 -88 -69 -132
-104 -44 -36 -114 -88 -155 -117 -41 -29 -97 -71 -125 -94 -51 -42 -61 -49
-155 -112 -69 -45 -354 -193 -373 -193 -8 0 -41 -12 -73 -26 -140 -62 -285
-107 -339 -105 -175 6 -394 31 -446 51 -30 11 -72 25 -94 29 -45 10 -91 26
-151 53 -22 10 -46 18 -53 18 -13 0 -144 60 -266 122 -33 16 -82 47 -110 67
-27 21 -78 54 -113 74 -123 72 -211 158 -309 302 -15 22 -40 55 -55 73 -30 35
-36 73 -15 90 6 6 41 15 76 22 36 6 82 21 102 33 l38 22 -6 25 c-8 35 -10 36
-46 21 -18 -7 -41 -13 -52 -13 -11 1 -27 -6 -36 -14 -26 -24 -91 -54 -115 -54
-13 0 -33 4 -46 9 l-24 9 -67 -40 c-37 -21 -67 -43 -67 -48 0 -6 15 -16 34
-24 41 -17 52 -32 35 -52 -7 -9 -12 -38 -12 -65 1 -76 -14 -79 -88 -15 -35 31
-69 67 -76 81 -8 14 -19 25 -26 25 -7 0 -23 9 -37 20 -31 24 -102 27 -120 5
-8 -9 -30 -15 -56 -15 -31 0 -56 -8 -85 -27 l-40 -26 -23 12 c-13 7 -32 12
-42 11 -43 -5 -58 4 -133 79 l-79 79 -39 2 c-74 5 -80 2 -86 -32 -3 -23 2 -42
15 -61 28 -39 11 -58 -46 -51 -32 5 -53 1 -83 -15 l-41 -20 -12 14 c-10 12
-30 14 -81 12 -42 -2 -76 1 -91 9 -13 7 -43 13 -68 14 -25 0 -73 7 -105 16
-33 9 -76 20 -96 23 -19 4 -60 19 -90 34 -29 14 -79 29 -109 33 -30 4 -68 15
-85 26 -16 10 -37 18 -46 18 -9 0 -22 7 -29 15 -7 8 -27 15 -44 15 -69 0 -219
97 -195 126 l11 13 27 -13 c14 -8 45 -17 69 -21 24 -4 56 -13 70 -21 30 -15
72 -19 72 -6 0 11 -46 32 -70 32 -10 0 -40 11 -66 25 -26 14 -53 25 -61 25
-23 0 -146 60 -173 84 -14 12 -38 30 -54 40 l-28 18 15 15 16 16 50 -22 c30
-12 60 -19 74 -16 16 4 29 0 41 -14 11 -12 25 -21 33 -21 7 0 24 -6 36 -14 34
-22 172 -67 235 -77 31 -5 77 -14 102 -20 25 -6 89 -14 142 -19 53 -4 101 -10
105 -13 5 -3 40 -3 79 1 l69 7 -85 23 c-47 12 -94 22 -106 22 -11 0 -25 5 -32
12 -34 34 59 52 114 23 21 -11 52 -15 109 -14 81 2 108 -2 180 -27 49 -17 354
-23 492 -10 l92 9 22 23 22 23 19 -10 c11 -6 31 -8 44 -5 13 4 32 1 43 -6 30
-19 309 12 356 40 11 6 16 12 10 12 -114 13 -194 8 -357 -21 l-67 -12 -26 17
-27 18 18 19 c10 11 30 19 50 19 26 0 41 8 65 35 l32 35 38 0 c21 0 68 11 106
24 37 14 97 30 133 37 36 7 144 32 240 57 96 24 200 50 230 57 70 16 317 100
390 132 30 14 78 33 105 43 142 51 577 262 624 303 19 16 50 36 68 44 42 17
231 154 342 247 46 39 120 99 165 134 45 35 142 126 216 201 74 76 177 170
229 209 124 94 831 752 831 773 0 5 -8 9 -17 9 -23 0 -67 -23 -62 -31 7 -12
-33 -49 -52 -49 -10 0 -33 -18 -51 -41 -18 -22 -55 -55 -83 -73 -27 -19 -104
-82 -170 -141 -146 -131 -304 -267 -371 -318 -137 -106 -211 -165 -343 -276
-113 -95 -147 -118 -158 -110 -18 16 -19 15 198 196 103 86 186 159 184 161
-2 2 -19 -8 -38 -22 l-34 -26 -12 14 -12 14 128 104 c139 111 208 174 468 423
447 429 540 513 553 503 l12 -11 -16 -26 c-9 -14 -28 -39 -43 -56 l-26 -30 30
26 c72 63 194 158 232 182 23 14 44 31 48 37 5 8 11 8 21 -1 18 -15 13 -22
-49 -70 -64 -50 -217 -198 -217 -210 0 -5 7 -6 15 -3 8 4 22 1 30 -6 l15 -12
47 39 c27 22 78 54 114 72 69 34 185 130 208 174 l14 27 -26 21 c-34 26 -34
59 -2 89 14 13 25 29 25 35 0 6 32 41 70 78 39 37 76 79 82 94 16 37 38 63 54
63 7 0 26 12 43 28 62 56 109 92 120 92 6 0 11 6 11 14 0 15 125 136 140 136
5 0 12 -5 15 -10 10 -17 32 6 38 40 7 34 47 91 137 198 36 42 71 88 78 102 7
14 28 47 48 74 22 29 37 62 38 80 l1 31 -30 3 c-16 2 -40 13 -53 25 -17 16
-25 18 -34 9 -7 -7 -24 -12 -39 -12 -21 0 -41 -15 -84 -62 l-56 -63 -64 -21
c-86 -28 -108 -7 -65 64 l20 32 -18 0 c-10 0 -24 -6 -30 -12 -7 -7 -38 -18
-70 -24 l-57 -12 -14 14 -14 13 14 58 c7 32 13 76 12 98 0 22 -2 115 -4 208
l-3 167 15 14 c15 15 189 31 469 42 l155 7 11 -14 c6 -8 14 -73 17 -144 10
-212 44 -374 82 -389 41 -15 87 201 86 405 l0 116 17 16 c22 20 91 25 417 33
l271 6 12 -15 c7 -8 21 -79 32 -158 31 -221 42 -269 79 -322 18 -26 36 -45 41
-42 14 8 56 149 69 230 9 51 9 89 2 135 -15 93 -14 141 6 162 l16 18 126 1
c69 1 137 4 150 7 45 13 311 14 326 2z m-8308 -281 c7 -7 4 -32 -11 -87 -29
-105 -31 -108 -68 -77 -16 14 -42 25 -58 25 -15 0 -33 7 -40 15 l-13 16 24 25
c21 22 134 93 150 94 3 0 10 -5 16 -11z m1481 -33 l37 -34 -45 -45 c-34 -33
-58 -47 -97 -56 -29 -7 -64 -21 -77 -32 l-24 -19 -11 14 c-8 9 -5 34 13 95 13
44 29 88 36 96 8 10 31 15 71 15 l59 0 38 -34z m13368 -260 c110 -137 275
-455 251 -484 l-10 -13 -23 23 c-12 13 -38 61 -57 108 -55 134 -172 313 -316
482 l-70 82 12 14 12 15 68 -73 c37 -40 97 -109 133 -154z m-14921 -73 c-5
-10 -7 -26 -6 -35 1 -10 -9 -75 -23 -145 -38 -194 -54 -315 -60 -458 -13 -279
-36 -404 -70 -375 -10 7 -12 29 -9 73 4 55 -7 100 -21 87 -13 -14 -25 -276
-21 -510 3 -240 26 -597 40 -619 3 -5 7 -50 11 -101 3 -50 9 -103 15 -116 5
-14 9 -46 9 -71 0 -26 6 -72 14 -102 8 -31 24 -99 36 -151 12 -52 26 -106 32
-120 6 -14 12 -43 13 -66 2 -23 28 -94 60 -164 l56 -123 -13 -12 c-10 -10 -48
4 -181 66 -93 44 -190 93 -215 111 -60 40 -188 156 -363 331 l-139 137 -20
-10 -19 -10 -40 35 c-41 37 -91 129 -111 205 -7 24 -20 60 -30 80 -30 59 -43
112 -41 167 1 32 -4 64 -14 83 -23 45 -30 206 -15 357 l13 128 29 26 c19 19
32 46 43 90 8 35 23 90 34 122 33 94 139 302 182 358 l41 51 15 -14 14 -15
-12 -29 c-7 -16 -21 -41 -32 -56 -10 -16 -17 -40 -15 -55 l3 -28 50 88 c53 94
69 118 180 279 l70 101 119 96 c65 53 142 114 171 136 150 114 182 147 176
183 -1 8 3 20 10 28 l12 15 15 -15 c10 -9 12 -21 7 -33z m1427 -8 c46 -13 117
-38 158 -55 87 -37 159 -55 250 -65 159 -17 465 -142 697 -286 91 -56 231
-169 353 -285 52 -49 111 -102 131 -116 37 -28 338 -325 478 -474 46 -49 133
-133 194 -187 61 -54 122 -113 136 -132 14 -18 52 -57 84 -85 31 -29 57 -58
57 -65 0 -7 -21 -30 -47 -51 -27 -21 -79 -66 -118 -100 -38 -33 -104 -86 -145
-117 -41 -31 -111 -86 -155 -123 -158 -130 -454 -346 -603 -438 -26 -16 -65
-41 -87 -55 -37 -25 -152 -81 -302 -146 -34 -15 -71 -38 -84 -51 -12 -13 -45
-31 -73 -39 -28 -9 -64 -22 -81 -30 -16 -7 -50 -18 -75 -24 -59 -14 -149 -41
-289 -85 -62 -20 -128 -36 -145 -36 -17 0 -60 -9 -94 -20 -88 -27 -169 -27
-199 2 -13 12 -23 29 -23 39 0 10 -14 55 -31 101 l-32 83 -2 105 c-2 66 -9
124 -20 156 -12 39 -14 60 -7 86 5 19 7 59 5 89 -7 89 -11 99 -38 99 -37 0
-52 34 -64 142 -6 53 -15 108 -21 123 -5 14 -10 47 -10 73 0 26 -7 72 -16 102
-9 30 -21 82 -26 115 -5 33 -16 83 -24 111 -8 29 -17 101 -19 160 -3 60 -11
134 -17 164 -6 30 -11 134 -11 230 l0 175 26 155 c14 85 29 180 32 210 4 30
13 84 20 120 7 36 20 106 29 155 26 145 59 279 74 297 11 13 19 15 33 7 10 -5
56 -20 101 -34z m9617 1 c12 -15 -5 -36 -32 -40 -8 -1 -31 -14 -51 -30 -20
-15 -91 -58 -159 -95 -67 -37 -138 -76 -157 -88 -19 -12 -57 -34 -83 -50 -27
-15 -97 -64 -155 -107 -184 -137 -223 -156 -251 -122 -24 28 163 178 404 323
55 33 111 64 124 68 14 4 38 16 55 26 17 11 38 19 46 19 8 0 55 20 105 44 49
25 92 43 96 40 4 -2 12 3 19 11 15 19 24 19 39 1z m-7757 -155 l78 -74 -12
-14 -11 -14 -41 39 c-23 22 -76 65 -119 97 l-78 57 12 14 11 14 41 -23 c23
-12 76 -55 119 -96z m10326 -49 c17 -3 52 -62 52 -88 0 -33 27 -49 145 -90
117 -39 298 -136 354 -188 57 -54 181 -204 181 -220 0 -8 20 -46 44 -83 24
-37 47 -82 50 -99 4 -17 18 -46 32 -65 13 -18 24 -43 24 -55 0 -11 10 -37 23
-56 37 -57 57 -95 57 -110 -1 -14 46 -165 65 -213 9 -23 10 -71 3 -199 l-9
-169 -35 -74 c-18 -40 -34 -77 -34 -82 0 -5 -14 -31 -31 -57 -119 -189 -157
-245 -193 -289 -85 -104 -275 -295 -337 -341 -35 -26 -91 -73 -124 -104 -33
-31 -97 -82 -142 -113 -45 -32 -85 -62 -88 -67 -4 -6 -16 -10 -27 -10 -12 0
-31 -9 -43 -20 l-22 -21 -13 15 c-9 12 -10 30 -1 83 34 203 65 340 79 356 l15
17 18 -16 18 -17 10 24 c8 22 20 119 36 294 23 257 23 1258 0 1295 -3 5 -17
75 -30 154 -33 198 -61 290 -123 410 -39 76 -72 179 -62 191 8 9 61 12 108 7z
m-10493 -156 c101 -85 244 -228 548 -549 93 -97 203 -205 245 -239 42 -34 115
-96 162 -138 47 -42 121 -101 164 -130 l79 -53 -50 -46 c-28 -25 -85 -75 -127
-109 l-77 -64 -15 13 c-12 9 -15 24 -11 51 l5 38 -35 43 c-20 23 -52 58 -72
78 -70 71 -118 125 -175 199 -32 41 -104 122 -160 180 -56 58 -155 164 -221
235 -65 72 -165 178 -222 236 l-104 106 14 11 14 12 130 -123 c72 -67 168
-165 214 -217 187 -212 453 -460 494 -460 8 0 37 -20 65 -45 28 -25 55 -45 60
-45 29 0 -4 41 -137 171 -184 179 -319 316 -445 448 -54 56 -147 144 -207 196
-61 52 -137 122 -170 154 -33 32 -87 80 -120 106 -48 38 -59 51 -50 61 l11 14
47 -25 c26 -14 91 -63 146 -109z m9053 50 c-1 -61 12 -144 29 -185 18 -42 27
-263 12 -313 -6 -23 -5 -38 6 -57 34 -61 53 -110 64 -161 7 -33 22 -65 37 -82
l26 -26 -12 -37 -12 -37 22 -23 c14 -15 18 -25 11 -30 -18 -10 -13 -35 7 -35
25 0 42 -20 42 -50 0 -14 6 -43 14 -64 7 -22 11 -56 9 -77 -3 -21 2 -59 12
-89 31 -92 44 -162 57 -296 l12 -131 -18 -254 c-9 -140 -22 -276 -28 -302 -5
-26 -11 -76 -12 -111 -1 -35 -8 -71 -14 -79 -8 -9 -10 -26 -7 -40 4 -14 1 -36
-6 -49 -12 -22 -27 -94 -34 -168 -2 -19 -13 -66 -24 -105 -11 -38 -26 -90 -32
-115 -6 -25 -15 -58 -21 -75 -6 -16 -14 -50 -18 -75 -18 -103 -34 -166 -46
-180 -7 -9 -18 -38 -24 -65 -6 -28 -19 -68 -29 -90 -10 -22 -26 -62 -36 -90
-21 -59 -65 -145 -137 -272 -40 -68 -84 -124 -180 -224 l-127 -133 -18 16
c-30 27 -139 58 -224 65 -51 4 -90 13 -110 25 l-32 19 16 16 c9 9 33 17 54 18
168 7 283 19 280 29 -2 6 -12 13 -23 15 -54 10 -49 44 9 56 58 12 172 47 182
56 14 14 -14 35 -70 53 -27 8 -124 27 -214 41 -90 14 -170 30 -178 37 l-14 11
16 16 16 16 102 -2 c56 -1 141 -4 189 -7 67 -4 95 -2 125 11 21 9 72 19 113
22 85 7 94 25 14 27 -57 2 -108 24 -124 54 -9 16 -7 26 8 48 l18 27 -1 100
c-1 122 -21 186 -75 248 l-39 44 -68 1 c-37 1 -95 -3 -128 -7 -33 -5 -68 -5
-79 -2 -10 4 -59 -4 -110 -17 -152 -42 -324 -32 -434 23 -71 36 -173 113 -252
193 -36 36 -88 82 -117 103 -61 45 -67 53 -50 67 9 8 61 -14 190 -79 182 -92
304 -138 437 -166 41 -8 99 -24 129 -35 l53 -20 182 6 c402 15 633 29 694 42
40 8 23 22 -35 28 -32 4 -86 13 -119 21 -34 8 -75 12 -91 9 -19 -4 -33 -1 -42
9 l-12 15 21 15 22 15 -34 10 c-18 5 -89 17 -158 27 -69 9 -152 23 -185 32
-33 9 -98 19 -145 23 -47 4 -112 16 -145 28 -33 11 -132 43 -221 71 -88 29
-194 68 -235 89 -41 20 -94 46 -119 58 -25 11 -85 45 -135 74 -49 29 -112 66
-140 81 -70 39 -245 160 -362 250 -54 42 -116 88 -138 103 -22 15 -65 45 -95
67 -30 22 -80 56 -110 76 -30 20 -73 51 -95 68 -22 18 -68 52 -103 75 -35 23
-70 53 -79 66 l-15 24 15 23 c9 12 58 66 110 121 75 78 98 97 114 92 22 -7 52
12 123 80 25 24 61 50 80 58 20 8 44 24 55 36 11 13 37 33 57 46 20 13 60 44
88 69 28 25 66 52 86 60 42 17 175 124 198 159 9 14 24 26 32 26 18 0 120 71
225 156 36 30 70 54 74 54 4 0 41 24 83 53 43 30 120 78 172 107 52 29 107 61
121 71 14 10 50 28 80 39 30 12 82 39 116 61 35 21 120 64 190 95 71 31 160
71 198 89 39 19 97 44 130 56 33 12 69 28 80 35 11 7 43 18 70 25 28 6 60 18
72 25 12 8 53 22 90 33 l68 19 17 -15 c11 -10 17 -29 16 -57z m-9265 -34 c22
-23 25 -31 15 -40 -20 -16 -123 75 -107 94 l11 14 27 -19 c14 -11 39 -32 54
-49z m6212 9 c3 -20 8 -49 11 -66 l4 -29 -66 -63 c-52 -49 -70 -61 -80 -52
l-13 11 14 29 c8 15 15 37 15 47 0 30 28 103 56 145 l25 38 14 -11 c8 -7 17
-28 20 -49z m1025 -206 c20 -24 2 -52 -63 -102 -34 -26 -103 -83 -153 -127
-50 -45 -130 -112 -178 -151 -48 -38 -157 -128 -242 -200 -85 -71 -186 -156
-224 -188 -39 -32 -70 -62 -70 -66 0 -5 -48 -53 -106 -107 l-106 -98 -20 24
-19 24 -41 -42 -41 -41 13 -16 13 -16 -44 -45 c-24 -25 -60 -54 -79 -64 -19
-10 -98 -82 -174 -159 -107 -107 -143 -138 -153 -130 -16 14 -6 34 48 103 37
46 50 74 30 62 -5 -3 -15 1 -22 10 l-13 15 70 68 c38 37 152 143 254 236 102
92 196 180 210 196 14 16 55 52 91 81 36 29 128 107 204 173 77 66 167 140
201 165 95 68 241 182 319 249 108 92 205 148 276 160 4 1 12 -6 19 -14z
m-1483 -243 l2 -77 -61 -57 c-45 -43 -64 -55 -74 -48 -9 9 -7 24 11 73 13 34
31 84 41 110 23 64 53 102 68 87 6 -6 12 -45 13 -88z m-3687 -261 c-5 -9 -42
-49 -83 -89 l-74 -73 -13 15 -12 16 82 85 c64 65 86 82 96 74 9 -7 11 -17 4
-28z m-414 -162 l19 -21 -29 -24 c-22 -20 -31 -22 -42 -13 -18 15 -18 29 2 57
19 27 26 27 50 1z m33 -202 l-123 -117 -16 15 -15 16 45 41 c25 22 80 74 122
116 l78 75 16 -14 17 -14 -124 -118z m-217 103 c9 0 21 7 28 15 16 19 40 2 40
-28 0 -23 -47 -77 -67 -77 -7 0 -26 21 -42 47 -22 35 -27 51 -19 60 l11 14 17
-16 c9 -8 24 -15 32 -15z m-3 -284 c16 -20 -205 -222 -225 -205 l-14 11 81 87
c45 47 96 93 113 102 17 9 32 17 32 18 1 1 7 -5 13 -13z m5225 -92 c-39 -48
-44 -50 -62 -32 -17 17 66 102 85 87 10 -9 5 -20 -23 -55z m3742 -141 c1 -200
0 -194 24 -155 30 49 47 41 69 -36 10 -34 15 -41 25 -33 19 16 37 -9 38 -51 4
-106 -6 -259 -17 -268 -17 -14 -38 13 -30 39 7 22 -10 38 -21 20 -4 -7 -7 -33
-6 -58 0 -25 -6 -61 -14 -80 -16 -39 -18 -87 -4 -96 6 -3 10 0 10 8 0 8 8 21
19 31 l18 17 13 -16 12 -15 -16 -157 c-17 -166 -32 -254 -73 -418 -14 -55 -31
-136 -39 -180 -8 -44 -17 -87 -20 -95 -3 -8 -14 -60 -24 -116 -12 -66 -38
-150 -77 -250 -33 -82 -63 -165 -67 -184 -3 -19 -33 -89 -65 -155 -33 -67 -69
-145 -80 -174 -20 -49 -73 -157 -153 -311 -18 -36 -66 -109 -106 -163 -58 -79
-76 -96 -87 -87 -15 13 -7 55 19 92 10 14 16 44 16 83 0 37 8 81 21 115 19 50
39 134 58 250 4 25 14 59 23 75 8 17 21 51 28 77 l13 48 -23 18 -23 19 19 39
c11 24 26 39 37 39 21 0 34 17 47 67 l10 37 -26 26 -26 27 6 41 c4 23 13 90
20 148 7 59 16 111 19 116 4 6 2 25 -3 45 -12 41 -2 124 35 293 43 201 75 368
75 393 0 13 6 44 14 70 8 26 24 115 36 197 12 83 28 173 36 200 7 28 21 97 29
155 9 57 23 115 31 128 l16 24 14 -14 c12 -12 15 -53 16 -199 1 -101 -2 -231
-6 -289 -6 -75 -5 -102 3 -95 6 6 13 26 15 45 3 19 12 58 20 85 31 102 46 279
46 539 0 262 5 295 39 261 12 -12 15 -47 17 -172z m-9287 -47 c9 -11 5 -19
-21 -40 -18 -15 -62 -51 -98 -82 -75 -63 -278 -227 -331 -267 l-36 -27 -12 14
-12 14 113 93 c62 51 147 124 189 162 82 73 176 147 189 147 4 0 13 -6 19 -14z
m4351 -131 c-22 -22 -40 -45 -40 -51 0 -5 -27 -36 -60 -69 l-60 -59 -16 16
-17 16 103 106 103 106 14 -12 14 -11 -41 -42z m-5051 -429 l12 -14 -100 -76
c-79 -60 -101 -73 -110 -62 -9 10 -1 22 36 52 38 31 144 112 149 114 1 0 7 -6
13 -14z m1379 -172 c12 -8 20 -20 16 -25 -3 -5 0 -17 7 -25 l13 -16 -95 -91
c-52 -51 -142 -127 -198 -171 l-103 -78 -16 16 -16 15 20 38 21 38 34 -2 34
-1 66 54 c37 30 73 61 79 69 l12 15 -23 20 -24 20 33 30 c17 16 32 35 32 42 0
18 51 68 70 68 8 0 26 -7 38 -16z m335 -46 c25 -39 32 -57 24 -66 -8 -10 -20
-4 -54 30 -45 45 -50 57 -31 76 19 19 25 15 61 -40z m3627 -8 c34 -43 33 -53
-9 -75 -30 -15 -78 -8 -107 16 l-14 11 36 44 c20 24 42 44 49 44 7 0 28 -18
45 -40z m-4921 6 c9 -11 -9 -29 -90 -92 -56 -44 -130 -97 -164 -119 -34 -22
-82 -53 -106 -68 -117 -75 -158 -95 -169 -82 -8 10 11 28 87 81 54 37 133 94
176 126 62 46 245 168 253 168 1 0 7 -6 13 -14z m4787 -201 c21 -32 73 -84
123 -125 47 -38 127 -104 176 -146 50 -41 128 -101 175 -131 47 -31 105 -73
130 -93 25 -20 65 -50 90 -66 25 -16 78 -53 119 -82 70 -52 296 -192 308 -192
3 0 53 -28 112 -63 179 -107 431 -245 701 -384 91 -47 201 -105 245 -128 44
-24 94 -50 110 -58 47 -23 274 -95 338 -106 32 -6 63 -13 68 -17 16 -9 240
-44 290 -44 75 0 78 -19 12 -73 -31 -25 -76 -56 -100 -68 -23 -12 -66 -42 -95
-67 -88 -75 -142 -92 -538 -166 -184 -34 -247 -32 -595 23 -119 19 -256 53
-395 100 -30 10 -75 24 -100 31 -51 14 -215 77 -245 94 -11 6 -36 12 -55 12
-65 4 -125 20 -161 45 -20 14 -85 45 -145 68 -72 29 -124 57 -154 83 -25 22
-58 47 -75 55 -16 9 -37 21 -45 28 -8 7 -28 16 -45 19 -16 4 -43 18 -60 30
-16 12 -68 44 -115 70 -47 27 -100 60 -119 74 -43 32 -98 63 -186 105 -38 19
-91 52 -116 74 -26 22 -64 51 -85 64 -77 47 -304 219 -366 278 -21 19 -38 43
-38 52 0 9 96 105 213 214 116 109 239 227 272 264 33 37 73 80 89 96 15 17
34 41 41 55 19 35 74 84 97 85 10 1 29 11 41 23 12 12 27 22 34 22 7 0 29 -25
49 -55z m-7967 -184 c11 -21 27 -43 35 -50 12 -10 13 -17 5 -27 l-11 -13 -53
45 c-29 25 -58 56 -65 69 l-13 24 13 16 12 15 29 -21 c16 -11 38 -37 48 -58z
m14054 15 c-4 -6 -18 -26 -31 -44 -19 -25 -28 -30 -38 -21 l-13 11 16 26 c32
52 45 63 59 51 8 -6 11 -16 7 -23z m-70 -104 c-15 -38 -205 -282 -267 -341
l-66 -63 -15 12 -15 13 42 46 c70 77 141 161 178 211 106 145 121 161 135 150
8 -6 11 -19 8 -28z m-640 -340 c-48 -47 -105 -96 -126 -111 -107 -73 -160
-105 -246 -148 -52 -27 -96 -53 -98 -59 -11 -34 190 -56 266 -30 l40 15 10
-13 c13 -15 -6 -35 -59 -61 -19 -9 -46 -28 -60 -40 -14 -13 -90 -53 -169 -90
l-145 -66 -13 14 c-10 10 -11 20 -4 38 5 13 17 51 27 84 9 33 31 98 49 145 17
47 45 126 60 175 16 50 39 100 51 113 22 25 76 41 133 42 19 0 43 8 53 17 10
9 46 23 81 30 66 15 121 28 177 41 22 6 40 5 48 -2 11 -8 -6 -28 -75 -94z
m-6229 46 c7 -12 3 -25 -18 -52 -32 -42 -45 -44 -74 -13 l-22 23 22 21 c49 44
74 49 92 21z m5726 -227 c0 -9 -9 -27 -20 -41 -11 -14 -20 -37 -20 -52 0 -15
-11 -52 -24 -82 -13 -29 -27 -69 -31 -87 -9 -42 -39 -101 -58 -117 -11 -10
-17 -9 -25 0 -8 10 2 52 35 153 25 77 50 149 54 160 4 11 11 31 14 45 4 14 14
36 22 48 l15 24 19 -18 c10 -9 19 -24 19 -33z m-5800 -57 c8 -8 39 -33 71 -56
32 -22 70 -55 83 -72 13 -18 53 -47 88 -66 34 -18 83 -47 108 -64 25 -18 67
-42 93 -55 27 -13 60 -34 75 -46 33 -27 235 -143 357 -203 50 -25 101 -53 115
-62 37 -26 211 -120 222 -120 5 0 24 -11 41 -23 18 -13 50 -33 72 -44 22 -11
57 -30 78 -42 21 -11 44 -21 51 -21 7 0 20 -7 27 -16 7 -9 43 -31 79 -48 36
-18 74 -37 85 -43 57 -32 108 -53 126 -53 31 0 218 -58 261 -81 20 -10 44 -19
52 -19 8 0 47 -16 87 -35 41 -19 86 -35 101 -35 15 0 53 -7 85 -16 58 -16 152
-34 208 -38 17 -2 32 -4 35 -5 3 -2 45 -5 95 -6 159 -6 258 -34 223 -63 -12
-10 -151 -34 -208 -36 -14 -1 -30 -4 -36 -8 -22 -14 -133 -12 -152 3 -25 22
-90 49 -114 49 -12 0 -53 11 -92 24 -39 14 -92 28 -118 31 l-48 7 0 -21 c0
-15 11 -25 38 -37 35 -15 54 -19 202 -47 36 -7 71 -16 78 -20 7 -5 20 -6 30
-3 10 4 37 -3 60 -14 24 -12 70 -22 106 -25 36 -2 78 -11 95 -19 16 -9 39 -16
51 -16 12 0 35 -8 53 -17 18 -9 61 -18 97 -20 110 -5 126 -8 144 -22 11 -10
13 -17 6 -26 -17 -21 -150 -62 -235 -74 -44 -6 -118 -15 -165 -22 -78 -10
-204 -8 -290 5 -68 10 -153 27 -160 31 -4 2 -42 11 -85 20 -43 9 -94 25 -114
36 -19 10 -44 19 -55 19 -11 0 -33 4 -50 9 -248 77 -314 99 -391 132 -49 22
-102 39 -117 39 -14 0 -39 11 -55 24 -26 22 -242 126 -261 126 -4 0 -23 11
-42 25 -19 14 -42 25 -52 25 -9 0 -32 12 -50 28 -39 33 -106 65 -119 57 -5 -4
-9 -16 -9 -28 1 -22 40 -52 120 -92 19 -10 44 -25 55 -34 11 -10 40 -23 65
-30 62 -18 74 -25 79 -47 1 -10 9 -26 17 -35 10 -11 11 -18 3 -26 -9 -9 -25
-5 -63 12 -108 49 -119 52 -166 43 -48 -8 -90 9 -90 37 0 14 -7 17 -52 20 -9
0 -51 39 -94 85 -43 47 -86 91 -97 99 -14 10 -17 21 -13 42 l5 28 -61 38 c-34
21 -71 47 -83 58 -35 33 -93 75 -103 75 -5 0 -26 14 -47 30 -21 17 -42 30 -47
30 -6 0 -30 18 -55 40 -25 22 -50 40 -55 40 -5 0 -36 21 -69 46 l-60 46 12 14
c12 14 22 12 52 -14 9 -8 19 -13 22 -10 7 7 -133 98 -150 98 -8 0 -24 13 -36
30 -12 16 -58 57 -102 91 l-79 61 14 15 15 14 45 -28 c25 -15 80 -52 122 -81
42 -28 99 -64 126 -78 27 -14 54 -32 61 -40 11 -13 71 -51 162 -102 23 -12 46
-21 51 -19 6 2 0 10 -14 17 -14 7 -46 31 -72 53 -37 31 -45 43 -37 53 l11 13
36 -23 c21 -13 46 -26 58 -30 19 -6 110 -54 264 -139 76 -43 95 -45 119 -15
l18 22 46 -27 c25 -15 56 -27 68 -27 13 0 59 -18 102 -41 43 -22 80 -39 83
-37 7 8 -39 45 -91 73 -27 15 -57 34 -66 41 -8 8 -33 24 -56 36 -139 78 -336
204 -388 249 -16 14 -64 47 -105 74 -41 27 -106 79 -145 115 -38 36 -90 81
-115 99 -25 19 -66 55 -92 80 -36 34 -45 48 -36 58 14 17 33 16 48 -3z m-1485
-184 l39 -40 -16 -17 c-13 -12 -20 -14 -31 -5 -7 6 -23 9 -35 5 -23 -6 -62 20
-62 40 0 15 41 57 55 57 6 0 29 -18 50 -40z m230 -220 l29 -30 -24 -25 c-32
-34 -94 -53 -115 -35 -8 7 -15 19 -15 26 0 18 68 94 84 94 7 0 25 -13 41 -30z
m7274 -33 c14 -17 -3 -33 -79 -72 -30 -15 -68 -38 -85 -50 -16 -13 -53 -30
-81 -38 -28 -8 -84 -29 -124 -47 l-72 -32 -14 14 -13 13 30 60 c47 91 52 95
128 95 48 0 95 9 171 34 121 40 124 40 139 23z m-1053 -133 c-39 -126 -99
-242 -227 -437 -46 -70 -54 -94 -39 -112 17 -21 -6 -51 -26 -34 -10 8 -19 1
-41 -33 -34 -52 -111 -152 -173 -224 -25 -29 -65 -78 -89 -108 -24 -31 -69
-78 -101 -106 l-58 -50 -11 14 c-11 13 23 63 147 216 16 19 35 46 42 60 7 14
30 45 50 70 20 25 54 74 75 110 21 36 62 92 90 125 28 33 69 89 90 125 22 36
49 77 61 92 13 16 57 99 100 185 43 87 82 164 87 171 l10 13 14 -14 15 -14
-16 -49z m-5946 -81 c0 -43 -94 -89 -126 -62 -48 40 -34 93 34 128 l37 20 27
-32 c15 -18 28 -42 28 -54z m368 49 l33 -27 -24 -23 -25 -23 -36 32 -37 32 17
18 c23 25 33 24 72 -9z m149 -118 c100 -68 98 -65 64 -98 l-30 -29 -75 69 -75
69 16 17 c9 10 20 18 24 18 4 0 38 -21 76 -46z m-5907 -18 c6 -8 22 -44 34
-80 19 -53 21 -68 11 -76 -10 -8 -24 3 -57 47 -62 81 -62 82 -42 104 20 23 37
24 54 5z m6302 -255 c29 -26 35 -38 27 -48 -16 -18 -21 -17 -65 16 -95 73 -95
73 -84 87 l12 13 36 -17 c20 -9 54 -32 74 -51z m122 -81 c7 0 21 -9 31 -20
l19 -21 -16 -15 -16 -16 -28 15 c-16 8 -42 29 -58 46 l-29 30 13 16 12 15 30
-25 c16 -14 35 -25 42 -25z m171 -115 c22 -13 56 -33 76 -44 19 -11 42 -27 49
-36 8 -9 61 -41 119 -71 141 -73 229 -123 272 -156 19 -15 53 -35 75 -44 78
-32 219 -106 240 -126 13 -11 45 -23 75 -27 30 -5 79 -20 109 -34 30 -15 65
-27 76 -27 12 0 33 -9 47 -20 14 -11 40 -20 59 -20 18 0 51 -12 73 -25 22 -14
52 -25 66 -25 15 0 38 -9 52 -20 14 -11 34 -20 44 -20 11 0 28 -7 39 -15 10
-8 28 -15 40 -15 11 0 29 -9 39 -20 20 -23 56 -35 168 -60 45 -10 118 -27 162
-38 52 -13 136 -22 240 -27 188 -8 151 -9 399 5 146 7 202 7 212 -1 20 -16 13
-23 -73 -69 -57 -31 -99 -45 -160 -55 -93 -15 -104 -20 -97 -40 3 -8 -6 -21
-22 -31 l-27 -18 -114 1 c-73 1 -120 6 -129 14 l-15 12 23 24 23 25 48 -6 c30
-4 47 -3 47 4 0 11 -2 12 -48 16 -18 1 -64 8 -103 14 -81 14 -105 5 -75 -29
l17 -19 -21 -15 c-16 -11 -29 -12 -63 -4 -80 19 -262 75 -317 97 -30 12 -82
31 -115 41 -68 23 -105 52 -105 86 0 15 -4 22 -11 18 -6 -4 -22 3 -35 16 -17
16 -36 23 -59 22 -22 -1 -40 5 -48 15 -12 17 -26 24 -144 66 -33 12 -68 28
-76 34 -8 7 -86 49 -173 93 -87 44 -165 86 -174 94 -16 14 -74 48 -125 73 -16
8 -37 20 -45 26 -8 7 -51 27 -95 46 -44 19 -127 65 -184 102 -110 71 -120 75
-138 57 -16 -16 -52 -4 -96 32 -25 20 -36 37 -32 47 3 9 -5 27 -21 43 l-27 28
13 16 c16 19 18 19 65 -10z"/>
    <path d="M11185 7078 c-11 -6 -23 -16 -27 -22 -9 -13 19 -36 36 -30 7 3 18 -2
25 -10 l12 -14 -28 -19 c-16 -10 -37 -23 -48 -29 -24 -13 -31 -49 -15 -70 7
-7 25 -14 41 -14 l29 0 15 36 c17 42 20 120 4 130 -6 3 -8 17 -5 30 7 27 -6
31 -39 12z"/>
    <path d="M9738 5941 c-177 -159 -447 -423 -403 -392 64 46 579 531 563 531 -4
0 -76 -62 -160 -139z"/>
    <path d="M7841 3783 c-14 -10 -47 -29 -74 -43 -57 -29 -64 -44 -22 -48 44 -3
160 57 160 83 0 27 -33 31 -64 8z"/>
    <path d="M7500 3595 l-23 -24 -51 1 c-84 3 -191 -46 -250 -115 -22 -27 -52
-55 -66 -62 -48 -27 1 -15 60 15 33 17 68 30 78 30 18 0 51 13 162 62 116 51
147 75 137 103 -9 21 -20 19 -47 -10z"/>
    <path d="M5869 9543 c-20 -21 -56 -63 -81 -93 l-46 -55 11 -17 c9 -13 7 -21
-8 -37 -10 -12 -16 -23 -14 -26 3 -2 20 17 39 42 19 26 54 66 78 90 23 23 42
47 42 52 0 5 7 14 15 21 16 13 21 60 7 60 -4 0 -24 -17 -43 -37z"/>
    <path d="M5554 9078 c-127 -199 -183 -311 -191 -381 l-6 -49 18 3 c10 2 31 28
46 59 43 85 89 195 89 212 0 8 9 27 20 41 11 14 20 32 20 39 0 8 11 25 25 38
24 23 41 76 33 102 -3 7 -27 -22 -54 -64z"/>
    <path d="M17550 8818 c-13 -5 -48 -8 -79 -7 -49 1 -176 -21 -371 -62 -30 -7
-75 -22 -100 -34 -25 -12 -69 -28 -98 -34 -28 -7 -49 -17 -46 -22 7 -12 48
-11 60 1 5 5 30 14 54 19 48 10 246 54 321 71 25 6 52 8 61 5 9 -4 32 1 53 9
21 9 54 16 74 16 20 0 42 5 48 11 7 7 20 6 44 -5 37 -16 206 -39 221 -30 23
14 -16 31 -72 31 -39 1 -67 6 -78 16 -22 19 -63 26 -92 15z"/>
    <path d="M17499 8706 c-3 -3 -37 -9 -75 -12 -85 -7 -266 -43 -278 -55 -18 -17
26 -22 79 -9 29 7 71 10 93 7 21 -4 42 -3 46 1 4 4 58 7 119 8 164 1 397 16
403 26 3 4 -10 8 -28 8 -18 0 -49 5 -68 10 -40 12 -282 25 -291 16z"/>
    <path d="M16638 8634 c-68 -21 -62 -37 10 -29 56 7 122 28 122 39 0 11 -86 4
-132 -10z"/>
    <path d="M16935 8605 c-71 -28 -52 -31 65 -10 47 8 86 15 88 15 1 0 2 5 2 10
0 18 -94 9 -155 -15z"/>
    <path d="M17457 8574 c-27 -10 -44 -11 -57 -4 -26 14 -90 12 -120 -3 -18 -9
-24 -20 -22 -37 3 -32 3 -32 55 -21 107 24 213 30 360 19 153 -12 174 -8 161
26 l-7 18 -44 -7 c-30 -4 -49 -2 -59 6 -22 18 -104 19 -132 2 l-24 -15 -17 16
c-21 19 -42 19 -94 0z"/>
    <path d="M19430 8436 c0 -4 36 -34 228 -188 68 -55 82 -63 82 -45 0 15 -113
110 -219 184 -70 49 -91 60 -91 49z"/>
  </g>
</svg>
