<svg xmlns="http://www.w3.org/2000/svg" viewBox="0 0 878.0 200.0" role="img" aria-label="研究蔵書"><g fill="currentColor"><g transform="translate(-4.251,180.659) scale(0.212540,-0.212540)"><path transform="translate(0.00,0)" d="M727 728V420H628V728ZM32 758 40 730H156C137 545 96 352 20 212L33 202C62 232 88 263 111 296V-30H130C182 -30 214 -6 214 2V94H299V22H318C353 22 405 43 406 51V430C422 433 434 440 440 447L339 523L290 471H227L210 478C241 556 262 640 276 730H438L439 728H518V420H415L423 391H518C516 209 489 47 329 -82L339 -91C591 24 625 207 628 391H727V-87H747C806 -87 840 -63 841 -55V391H963C977 391 987 396 989 407C957 445 897 501 897 501L845 420H841V728H935C949 728 960 733 963 744C922 781 854 836 854 837L794 757H454C412 792 357 835 357 835L296 758ZM299 443V122H214V443Z"/><path transform="translate(1060.00,0)" d="M87 301 96 273H354C330 132 248 8 32 -75L38 -86C337 -23 445 105 482 273H617V35C617 -43 632 -66 726 -66H802C933 -66 978 -40 978 8C978 30 972 44 942 58L939 174H928C910 120 894 77 885 62C879 53 874 51 864 50C855 49 836 49 817 49H761C740 49 737 53 737 66V264C755 267 765 272 771 279L664 365L605 301H487C493 337 496 375 498 415C522 417 533 427 535 444L360 455C364 403 364 351 358 301ZM177 787C177 730 132 680 93 662C60 646 36 616 48 578C62 536 113 525 149 547C186 568 215 618 212 690H322C303 551 233 453 65 384L69 371C298 417 419 516 453 690H545V522C545 449 561 428 657 428H745C894 428 932 447 932 493C932 514 925 528 895 540L891 607H880C866 574 852 549 843 540C837 534 829 532 818 532C807 531 783 531 758 531H689C664 531 661 535 661 547V690H783C773 656 758 613 746 585L755 579C806 599 875 636 915 665C936 666 946 669 954 677L843 782L779 718H559V810C584 814 591 823 592 836L438 848V718H209C205 739 199 762 190 787Z"/><path transform="translate(2120.00,0)" d="M733 710 723 704C745 682 766 644 769 611C841 557 920 690 733 710ZM510 326V219H341V326ZM502 354H485V450H595C603 450 610 452 614 457C623 347 640 246 675 159C657 130 638 104 617 79L556 132L510 70H485V191H510V162H525C552 162 596 177 597 183V316C612 319 624 326 628 332L542 396ZM398 354H341V450H398ZM398 191V70H341V191ZM251 479V-40H267C312 -40 341 -19 341 -12V41H583C542 -3 497 -40 449 -72L459 -83C557 -44 642 9 712 81C739 34 773 -7 816 -43C856 -76 928 -109 965 -66C979 -49 975 -23 944 26L960 170L950 172C935 135 914 88 901 65C893 50 887 50 873 61C836 90 808 128 786 172C836 245 876 334 907 441C930 440 942 448 947 461L804 507C791 430 771 359 745 295C728 374 721 462 720 554H950C964 554 974 559 977 570C944 603 887 650 887 650L838 583H720V618C743 622 752 633 753 646L683 653C688 655 691 658 691 660V714H940C955 714 965 719 968 730C930 766 865 816 865 816L807 742H691V810C717 813 725 823 727 836L576 849V742H415V810C441 813 449 823 451 836L303 849V742H32L39 714H303V632H321C371 632 415 647 415 656V714H576V637H595H607L608 583H239L115 628V407C115 252 109 67 29 -81L39 -91C210 47 221 262 221 408V554H609L613 473C582 503 540 539 540 539L495 479H353L251 520Z"/><path transform="translate(3180.00,0)" d="M146 536 154 508H433V429H112L121 401H433V321H33L42 293H938C952 293 962 298 965 309C924 344 858 392 858 392L800 321H549V401H870C884 401 894 406 897 417C863 445 813 483 799 494C803 496 806 498 806 500V619H945C959 619 969 624 971 635C937 668 880 716 880 716L829 648H806V713C826 717 838 725 844 732L736 813L684 758H549V808C576 812 584 822 586 836L433 850V758H151L160 729H433V648H32L40 619H433V536ZM549 619H694V536H549ZM549 648V729H694V648ZM549 429V508H694V469H714C737 469 766 478 785 487L737 429ZM187 222V-87H204C251 -87 303 -62 303 -51V-29H694V-83H714C752 -83 811 -63 812 -56V174C833 178 846 187 852 195L738 281L684 222H311L187 270ZM694 0H303V86H694ZM694 114H303V193H694Z"/></g></g></svg>
