<?xml version="1.0" encoding="UTF-8" standalone="no"?>
<!DOCTYPE svg PUBLIC "-//W3C//DTD SVG 1.1//EN"
 "http://www.w3.org/Graphics/SVG/1.1/DTD/svg11.dtd">
<!-- Generated by graphviz version 2.43.0 (0)
 -->
<!-- Title: loop Pages: 1 -->
<svg width="1653pt" height="1091pt"
 viewBox="0.00 0.00 826.60 545.60" xmlns="http://www.w3.org/2000/svg" xmlns:xlink="http://www.w3.org/1999/xlink">
<g id="graph0" class="graph" transform="scale(2 2) rotate(0) translate(28.8 516.8)">
<title>loop</title>
<polygon fill="#f7f3ea" stroke="transparent" points="-28.8,28.8 -28.8,-516.8 797.8,-516.8 797.8,28.8 -28.8,28.8"/>
<!-- A -->
<g id="node1" class="node">
<title>A</title>
<path fill="#fffdf7" stroke="#c9c2b3" stroke-width="1.2" d="M248,-488C248,-488 114,-488 114,-488 108,-488 102,-482 102,-476 102,-476 102,-464 102,-464 102,-458 108,-452 114,-452 114,-452 248,-452 248,-452 254,-452 260,-458 260,-464 260,-464 260,-476 260,-476 260,-482 254,-488 248,-488"/>
<text text-anchor="middle" x="181" y="-466.6" font-family="DejaVu Serif" font-size="13.00" fill="#1e1b16">You ask a question</text>
</g>
<!-- B -->
<g id="node2" class="node">
<title>B</title>
<path fill="#fffdf7" stroke="#c9c2b3" stroke-width="1.2" d="M322,-415C322,-415 40,-415 40,-415 34,-415 28,-409 28,-403 28,-403 28,-379 28,-379 28,-373 34,-367 40,-367 40,-367 322,-367 322,-367 328,-367 334,-373 334,-379 334,-379 334,-403 334,-403 334,-409 328,-415 322,-415"/>
<text text-anchor="middle" x="181" y="-394.6" font-family="DejaVu Serif" font-size="13.00" fill="#1e1b16">It reads and takes notes.</text>
<text text-anchor="middle" x="181" y="-380.6" font-family="DejaVu Serif" font-size="13.00" fill="#1e1b16">Each note says which page it came from.</text>
</g>
<!-- A&#45;&gt;B -->
<g id="edge1" class="edge">
<title>A&#45;&gt;B</title>
<path fill="none" stroke="#6b6459" stroke-width="1.2" d="M181,-451.91C181,-443.47 181,-433 181,-423.2"/>
<polygon fill="#6b6459" stroke="#6b6459" stroke-width="1.2" points="183.8,-423.17 181,-415.17 178.2,-423.17 183.8,-423.17"/>
</g>
<!-- C -->
<g id="node3" class="node">
<title>C</title>
<path fill="#fffdf7" stroke="#c9c2b3" stroke-width="1.2" d="M315.5,-330C315.5,-330 46.5,-330 46.5,-330 40.5,-330 34.5,-324 34.5,-318 34.5,-318 34.5,-294 34.5,-294 34.5,-288 40.5,-282 46.5,-282 46.5,-282 315.5,-282 315.5,-282 321.5,-282 327.5,-288 327.5,-294 327.5,-294 327.5,-318 327.5,-318 327.5,-324 321.5,-330 315.5,-330"/>
<text text-anchor="middle" x="181" y="-309.6" font-family="DejaVu Serif" font-size="13.00" fill="#1e1b16">It checks each claim against its source</text>
<text text-anchor="middle" x="181" y="-295.6" font-family="DejaVu Serif" font-size="13.00" fill="#1e1b16">and writes the report.</text>
</g>
<!-- B&#45;&gt;C -->
<g id="edge2" class="edge">
<title>B&#45;&gt;C</title>
<path fill="none" stroke="#6b6459" stroke-width="1.2" d="M181,-366.88C181,-358.05 181,-347.83 181,-338.36"/>
<polygon fill="#6b6459" stroke="#6b6459" stroke-width="1.2" points="183.8,-338.28 181,-330.28 178.2,-338.28 183.8,-338.28"/>
</g>
<!-- D -->
<g id="node4" class="node">
<title>D</title>
<path fill="#fffdf7" stroke="#c9c2b3" stroke-width="1.2" d="M350,-227C350,-227 12,-227 12,-227 6,-227 0,-221 0,-215 0,-215 0,-191 0,-191 0,-185 6,-179 12,-179 12,-179 350,-179 350,-179 356,-179 362,-185 362,-191 362,-191 362,-215 362,-215 362,-221 356,-227 350,-227"/>
<text text-anchor="middle" x="181" y="-206.6" font-family="DejaVu Serif" font-size="13.00" fill="#1e1b16">The report arrives.</text>
<text text-anchor="middle" x="181" y="-192.6" font-family="DejaVu Serif" font-size="13.00" fill="#1e1b16">Its claims go on the shelves, under your subjects.</text>
</g>
<!-- C&#45;&gt;D -->
<g id="edge3" class="edge">
<title>C&#45;&gt;D</title>
<path fill="none" stroke="#6b6459" stroke-width="1.2" d="M181,-281.83C181,-267.97 181,-250.19 181,-235.11"/>
<polygon fill="#6b6459" stroke="#6b6459" stroke-width="1.2" points="183.8,-235.06 181,-227.06 178.2,-235.06 183.8,-235.06"/>
</g>
<!-- G -->
<g id="node7" class="node">
<title>G</title>
<path fill="#fffdf7" stroke="#c9c2b3" stroke-width="1.2" stroke-dasharray="5,2" d="M580.5,-330C580.5,-330 397.5,-330 397.5,-330 391.5,-330 385.5,-324 385.5,-318 385.5,-318 385.5,-294 385.5,-294 385.5,-288 391.5,-282 397.5,-282 397.5,-282 580.5,-282 580.5,-282 586.5,-282 592.5,-288 592.5,-294 592.5,-294 592.5,-318 592.5,-318 592.5,-324 586.5,-330 580.5,-330"/>
<text text-anchor="middle" x="489" y="-309.6" font-family="DejaVu Serif" font-size="13.00" fill="#1e1b16">Open questions</text>
<text text-anchor="middle" x="489" y="-295.6" font-family="DejaVu Serif" font-size="13.00" fill="#1e1b16">It could not answer these.</text>
</g>
<!-- C&#45;&gt;G -->
<g id="edge7" class="edge">
<title>C&#45;&gt;G</title>
<path fill="none" stroke="#6b6459" stroke-width="1.2" stroke-dasharray="5,2" d="M327.78,-306C344.29,-306 360.79,-306 377.3,-306"/>
<polygon fill="none" stroke="#6b6459" stroke-width="1.2" points="377.4,-308.8 385.4,-306 377.4,-303.2 377.4,-308.8"/>
</g>
<!-- E -->
<g id="node5" class="node">
<title>E</title>
<path fill="#c3402f" stroke="#c3402f" stroke-width="0" d="M329.5,-135C329.5,-135 32.5,-135 32.5,-135 26.5,-135 20.5,-129 20.5,-123 20.5,-123 20.5,-108 20.5,-108 20.5,-102 26.5,-96 32.5,-96 32.5,-96 329.5,-96 329.5,-96 335.5,-96 341.5,-102 341.5,-108 341.5,-108 341.5,-123 341.5,-123 341.5,-129 335.5,-135 329.5,-135"/>
<text text-anchor="middle" x="181" y="-111.8" font-family="DejaVu Serif" font-size="14.00" fill="#ffffff">You decide: keep or dispute each claim</text>
</g>
<!-- D&#45;&gt;E -->
<g id="edge4" class="edge">
<title>D&#45;&gt;E</title>
<path fill="none" stroke="#6b6459" stroke-width="1.2" d="M181,-178.64C181,-167.76 181,-154.76 181,-143.47"/>
<polygon fill="#6b6459" stroke="#6b6459" stroke-width="1.2" points="183.8,-143.24 181,-135.24 178.2,-143.24 183.8,-143.24"/>
</g>
<!-- H -->
<g id="node8" class="node">
<title>H</title>
<path fill="#fffdf7" stroke="#c9c2b3" stroke-width="1.2" stroke-dasharray="5,2" d="M648.5,-234C648.5,-234 497.5,-234 497.5,-234 491.5,-234 485.5,-228 485.5,-222 485.5,-222 485.5,-184 485.5,-184 485.5,-178 491.5,-172 497.5,-172 497.5,-172 648.5,-172 648.5,-172 654.5,-172 660.5,-178 660.5,-184 660.5,-184 660.5,-222 660.5,-222 660.5,-228 654.5,-234 648.5,-234"/>
<text text-anchor="middle" x="573" y="-213.6" font-family="DejaVu Serif" font-size="13.00" fill="#1e1b16">New subjects</text>
<text text-anchor="middle" x="573" y="-199.6" font-family="DejaVu Serif" font-size="13.00" fill="#1e1b16">None of yours fit.</text>
<text text-anchor="middle" x="573" y="-185.6" font-family="DejaVu Serif" font-size="13.00" fill="#1e1b16">Accept or drop them.</text>
</g>
<!-- D&#45;&gt;H -->
<g id="edge9" class="edge">
<title>D&#45;&gt;H</title>
<path fill="none" stroke="#6b6459" stroke-width="1.2" stroke-dasharray="5,2" d="M362.32,-199.84C389.8,-199.68 417.82,-199.69 444.33,-200 455.03,-200.12 466.23,-200.31 477.36,-200.52"/>
<polygon fill="none" stroke="#6b6459" stroke-width="1.2" points="477.4,-203.32 485.45,-200.68 477.51,-197.73 477.4,-203.32"/>
</g>
<!-- F -->
<g id="node6" class="node">
<title>F</title>
<path fill="#fffdf7" stroke="#c9c2b3" stroke-width="1.2" d="M263,-48C263,-48 99,-48 99,-48 93,-48 87,-42 87,-36 87,-36 87,-12 87,-12 87,-6 93,0 99,0 99,0 263,0 263,0 269,0 275,-6 275,-12 275,-12 275,-36 275,-36 275,-42 269,-48 263,-48"/>
<text text-anchor="middle" x="181" y="-27.6" font-family="DejaVu Serif" font-size="13.00" fill="#1e1b16">You use what you kept:</text>
<text text-anchor="middle" x="181" y="-13.6" font-family="DejaVu Serif" font-size="13.00" fill="#1e1b16">ask, the map, explain.</text>
</g>
<!-- E&#45;&gt;F -->
<g id="edge5" class="edge">
<title>E&#45;&gt;F</title>
<path fill="none" stroke="#6b6459" stroke-width="1.2" d="M181,-95.96C181,-84.62 181,-69.81 181,-56.66"/>
<polygon fill="#6b6459" stroke="#6b6459" stroke-width="1.2" points="183.8,-56.31 181,-48.31 178.2,-56.31 183.8,-56.31"/>
</g>
<!-- F&#45;&gt;A -->
<g id="edge6" class="edge">
<title>F&#45;&gt;A</title>
<path fill="none" stroke="#6b6459" stroke-width="1.2" d="M275.2,-39.47C404.68,-61.51 627.12,-107.8 675,-172 720.7,-233.28 671.59,-289.1 607,-330 526.93,-380.7 481.29,-323.68 397,-367 369.89,-380.94 374.09,-399.22 348,-415 323.2,-430 293.78,-441.3 266.59,-449.59"/>
<polygon fill="#6b6459" stroke="#6b6459" stroke-width="1.2" points="265.48,-447 258.61,-451.96 267.08,-452.37 265.48,-447"/>
<text text-anchor="middle" x="727" y="-255.2" font-family="DejaVu Serif" font-size="11.00" fill="#6b6459"> &#160;next question</text>
</g>
<!-- F&#45;&gt;E -->
<g id="edge11" class="edge">
<title>F&#45;&gt;E</title>
<path fill="none" stroke="#6b6459" stroke-width="1.2" stroke-dasharray="5,2" d="M197.86,-48.05C202.61,-57.19 205.8,-67.92 203,-78 202.01,-81.54 200.58,-85.09 198.91,-88.5"/>
<polygon fill="none" stroke="#6b6459" stroke-width="1.2" points="196.36,-87.34 194.96,-95.7 201.27,-90.03 196.36,-87.34"/>
<text text-anchor="middle" x="258" y="-69.2" font-family="DejaVu Serif" font-size="11.00" fill="#6b6459"> &#160;a source changed</text>
</g>
<!-- G&#45;&gt;A -->
<g id="edge8" class="edge">
<title>G&#45;&gt;A</title>
<path fill="none" stroke="#6b6459" stroke-width="1.2" stroke-dasharray="5,2" d="M465.64,-330.05C434.8,-359.09 377.51,-408.28 319,-434 303.01,-441.03 285.33,-446.85 268.11,-451.58"/>
<polygon fill="none" stroke="#6b6459" stroke-width="1.2" points="267.25,-448.92 260.24,-453.68 268.69,-454.33 267.25,-448.92"/>
<text text-anchor="middle" x="454" y="-388.2" font-family="DejaVu Serif" font-size="11.00" fill="#6b6459"> &#160;ask again</text>
</g>
<!-- H&#45;&gt;D -->
<g id="edge10" class="edge">
<title>H&#45;&gt;D</title>
<path fill="none" stroke="#6b6459" stroke-width="1.2" stroke-dasharray="5,2" d="M485.45,-203C451.19,-203 410.47,-203 370.14,-203"/>
<polygon fill="none" stroke="#6b6459" stroke-width="1.2" points="370.08,-200.2 362.08,-203 370.08,-205.8 370.08,-200.2"/>
<text text-anchor="middle" x="423.75" y="-221.2" font-family="DejaVu Serif" font-size="11.00" fill="#6b6459"> &#160;then the claims</text>
<text text-anchor="middle" x="423.75" y="-209.2" font-family="DejaVu Serif" font-size="11.00" fill="#6b6459"> &#160;are filed</text>
</g>
</g>
</svg>
